<?xml version="1.0" encoding="UTF-8"?>
<svg xmlns="http://www.w3.org/2000/svg" viewBox="0 0 262.85 296.39">
  <defs>
    <style>
      .cls-1 {
        fill: #FFFF;
      }
    </style>
  </defs>
  <g id="Bildmarke">
    <g>
      <polygon class="cls-1" points="75.58 134.26 98.13 126.71 98.47 112.26 105.52 112.26 105.82 124.13 124.52 117.88 106.51 99.23 57.52 111.3 57.52 119.83 75.58 134.26"/>
      <polygon class="cls-1" points="93.34 152.28 74.98 137.62 57.52 143.46 57.52 162.64 93.34 152.28"/>
      <polygon class="cls-1" points="57.52 123.66 57.52 140.3 72.2 135.39 57.52 123.66"/>
      <polygon class="cls-1" points="97.57 151.05 98.06 129.89 78.37 136.48 96.87 151.26 97.57 151.05"/>
      <polygon class="cls-1" points="175.52 103.97 129.97 119.21 146.92 136.77 151.83 135.35 152.47 112.26 159.53 112.26 160.19 132.93 192.14 123.69 175.52 103.97"/>
      <polygon class="cls-1" points="195.28 122.78 200.62 121.23 200.62 95.57 178.58 102.94 195.28 122.78"/>
      <polygon class="cls-1" points="151.74 138.5 149.28 139.21 151.65 141.66 151.74 138.5"/>
      <path class="cls-1" d="M173.44,101.5l-4.3-5.1c-19.51,3.81-39.11,4.74-58.27,3.04l16.79,17.39,45.77-15.32Z"/>
      <path class="cls-1" d="M176.51,100.47l24.11-8.07v-4.74c-9.31,3.38-18.7,6.05-28.12,8.05l4.01,4.76Z"/>
      <path class="cls-1" d="M57.52,87.51v20.7l41.37-10.2c-14.16-2.09-28.03-5.62-41.37-10.5Z"/>
      <polygon class="cls-1" points="96.21 154.57 57.52 165.77 57.52 177.21 96.97 177.21 97.47 155.57 96.21 154.57"/>
      <polygon class="cls-1" points="121.87 175.06 106.81 163.03 107.17 177.21 115.18 177.21 121.87 175.06"/>
      <polygon class="cls-1" points="126.83 120.27 105.9 127.27 106.44 148.49 143.67 137.71 126.83 120.27"/>
      <polygon class="cls-1" points="168.32 163.23 161.24 165.51 161.62 177.21 181.82 177.21 168.32 163.23"/>
      <polygon class="cls-1" points="171.48 162.21 185.98 177.21 200.62 177.21 200.62 152.81 171.48 162.21"/>
      <polygon class="cls-1" points="128.09 176.2 129.36 177.21 150.67 177.21 150.9 168.84 128.09 176.2"/>
      <polygon class="cls-1" points="197.4 125.29 200.62 129.1 200.62 124.36 197.4 125.29"/>
      <polygon class="cls-1" points="160.92 155.57 161.14 162.39 166 160.83 160.92 155.57"/>
      <polygon class="cls-1" points="150.99 165.66 151.54 145.86 146.03 140.16 106.52 151.59 106.71 159.11 125.28 173.95 150.99 165.66"/>
      <polygon class="cls-1" points="200.62 149.67 200.62 133.76 194.25 126.2 160.29 136.02 160.78 151.12 169.16 159.81 200.62 149.67"/>
    </g>
    <g>
      <path class="cls-1" d="M137.76,13.75l5.94,8.33,24.32-6.63c-3.29-2.79-6.83-5.24-10.58-7.32l-19.69,5.62Z"/>
      <polygon class="cls-1" points="142.46 25.52 118.79 31.97 135.89 52.26 156.65 45.43 142.46 25.52"/>
      <polygon class="cls-1" points="128.72 90.65 142.47 87.27 119.34 60.86 103.23 66.16 128.72 90.65"/>
      <polygon class="cls-1" points="158.48 47.99 137.96 54.73 161.44 82.59 179.91 78.04 158.48 47.99"/>
      <path class="cls-1" d="M129.94,95.97l-2.09-2.01-7.02,1.73c3.05.15,6.09.25,9.11.28Z"/>
      <path class="cls-1" d="M147.97,89l5.12,5.84c4.43-.48,8.85-1.09,13.18-1.85l-5.93-7.05-12.37,3.05Z"/>
      <polygon class="cls-1" points="102.02 36.55 120.28 57.39 132.81 53.27 115.6 32.85 102.02 36.55"/>
      <path class="cls-1" d="M73.37,41.49l-.54-.76c-.08.17-.46.89-.54,1.06l1.08-.3Z"/>
      <path class="cls-1" d="M161.46,47l21.58,30.26,27.07-6.67c.07-4.76-4.1-10.03-14.17-15.67v12.49h-4.39c-.07-5.28-.79-12.71-2.2-18.04-.95-3.6-2.19-7.05-3.66-10.34l-24.22,7.96Z"/>
      <polygon class="cls-1" points="134.89 55.74 122.44 59.84 145.75 86.46 158.19 83.39 134.89 55.74"/>
      <path class="cls-1" d="M76.45,40.41l20.17-5.49-6.59-7.53-10.53,3.01c-1.93,2.47-3.7,5.11-5.28,7.86l2.23,2.14Z"/>
      <path class="cls-1" d="M131.29,93.12l2.98,2.86c4.89-.05,9.99-.31,15.15-.77l-4.73-5.4-13.4,3.31Z"/>
      <path class="cls-1" d="M159.64,44.44l24.75-8.14c-3.53-7.04-8.2-13.25-13.72-18.47l-25.12,6.85,14.09,19.76Z"/>
      <path class="cls-1" d="M87.83,24.9l-1.65-1.89c-1.1,1.05-2.16,2.14-3.2,3.28l4.85-1.39Z"/>
      <path class="cls-1" d="M107.98,19.14l24.86-7.11L124.27,0c-4.94.14-9.95.83-14.95,2.16v6.88c-2.48.75-4.94,1.73-7.38,2.91l6.05,7.18Z"/>
      <path class="cls-1" d="M163.59,85.15l6.08,7.22c6.17-1.19,12.06-2.65,17.34-4.37l-5.24-7.34-18.19,4.49Z"/>
      <path class="cls-1" d="M135.9,11.16l17.65-5.05c-7.92-3.73-16.61-5.85-25.6-6.11l7.95,11.16Z"/>
      <path class="cls-1" d="M184.91,79.89l5.07,7.11c9.85-3.53,17.14-7.98,19.39-13.14l-24.46,6.03Z"/>
      <path class="cls-1" d="M79.15,70.92l-8.55-8.86,2.16-2.09,9.56,9.91h0l15.23-5.02-21.97-21.11-4.77,1.3c-3.04,7.11-4.81,14.86-4.81,22.92h-4.11l.04-12.45c-16.55,9.03-17.05,17.22-8.45,23.84l25.66-8.44Z"/>
      <path class="cls-1" d="M56.64,81.48c9.67,5.76,26.39,10.11,44.78,12.49l-19.94-20.66-24.84,8.17Z"/>
      <path class="cls-1" d="M106.13,94.53c1.63.18,3.27.34,4.91.49l14.24-3.52-25.27-24.28-15.37,5.05,21.49,22.26Z"/>
      <polygon class="cls-1" points="116.67 29.45 140.6 22.92 134.7 14.63 110.1 21.66 116.67 29.45"/>
      <polygon class="cls-1" points="93.21 26.48 99.83 34.04 113.47 30.32 106.94 22.56 93.21 26.48"/>
      <polygon class="cls-1" points="117.2 58.41 98.82 37.42 78.96 42.83 100.78 63.8 117.2 58.41"/>
      <path class="cls-1" d="M88.4,20.99l2.62,2.99,13.79-3.94-5.62-6.67c-3.75,2.08-7.39,4.65-10.79,7.62Z"/>
    </g>
  </g>
  <g id="Text">
    <g>
      <path class="cls-1" d="M0,231.43v-44.98h11.53c9.9,0,14.97,4.13,14.97,13.41s-5.2,13.72-14.97,13.72h-4.07v17.85H0ZM11.84,207c3.63,0,7.02-1.63,7.02-7.14,0-4.82-2.51-6.64-6.89-6.64h-4.51v13.78h4.39Z"/>
      <rect class="cls-1" x="30.52" y="186.46" width="6.64" height="44.98"/>
      <path class="cls-1" d="M57.71,231.43l-.38-3.45c-2.57,2.63-5.45,4.01-8.83,4.01-4.57,0-7.33-3.13-7.33-8.58,0-3.7,1.31-6.51,4.13-8.58,2.51-1.94,6.64-3.32,11.71-4.82.38-4.26-.56-6.33-3.88-6.33-2.76,0-4.32,1.63-5.26,4.51l-5.39-1.32c1.44-5.26,4.63-8.64,11.02-8.64,7.08,0,10.02,3.38,10.02,10.27v16.79l.5,6.14h-6.33ZM56.83,214.71c-3.57,1-5.58,1.82-7.02,3.01-1.31,1.07-1.82,2.76-1.82,4.7,0,2.44,1.07,4.01,3.2,4.01s4.2-1.19,5.64-3.13v-8.58Z"/>
      <path class="cls-1" d="M84.58,231.43v-21.86c0-3.57-1.07-5.01-3.38-5.01-1.75,0-3.44.94-5.45,3.26v23.62h-6.64v-32.57h6.45v3.88c2.69-3.01,5.2-4.51,8.52-4.51,2.76,0,4.76,1.06,5.76,2.94,1.07,1.69,1.31,4.07,1.31,7.64v22.61h-6.58Z"/>
      <path class="cls-1" d="M107.14,232c-7.83,0-11.65-5.2-11.65-17.04,0-10.52,4.07-16.73,11.78-16.73,8.46,0,11.4,6.7,11.4,15.04,0,.94,0,2-.06,3.19h-16.73c.25,6.83,1.69,10.02,5.58,10.02,3.01,0,4.64-2.07,5.57-5.45l5.58,1.13c-1.75,6.89-5.58,9.83-11.46,9.83M101.94,211.64h10.34c0-4.82-1.5-8.08-5.01-8.08-3.26,0-4.89,2.88-5.32,8.08"/>
      <path class="cls-1" d="M137.64,231.25c-1.63.31-3.26.5-5.14.5-5.39,0-7.39-2-7.39-8.21v-19.1h-4.32v-5.58h4.32v-10.59h6.58v10.59h5.95v5.58h-5.95v17.98c0,2.32.88,3.26,2.82,3.26,1,0,2.07-.13,3.13-.44v6.01Z"/>
      <path class="cls-1" d="M156.97,231.43l-.38-3.45c-2.57,2.63-5.45,4.01-8.83,4.01-4.57,0-7.33-3.13-7.33-8.58,0-3.7,1.31-6.51,4.13-8.58,2.51-1.94,6.64-3.32,11.71-4.82.38-4.26-.56-6.33-3.88-6.33-2.76,0-4.32,1.63-5.26,4.51l-5.39-1.32c1.44-5.26,4.63-8.64,11.02-8.64,7.08,0,10.02,3.38,10.02,10.27v16.79l.5,6.14h-6.33ZM156.09,214.71c-3.57,1-5.58,1.82-7.02,3.01-1.31,1.07-1.82,2.76-1.82,4.7,0,2.44,1.07,4.01,3.2,4.01s4.2-1.19,5.64-3.13v-8.58Z"/>
      <path class="cls-1" d="M168.37,231.43v-32.57h6.45v5.39c2.13-3.88,4.26-6.01,7.71-6.01.31,0,.63.06,1.06.12v6.83c-.5-.06-1-.13-1.32-.13-3.19,0-5.51,1.94-7.27,5.58v20.8h-6.64Z"/>
      <path class="cls-1" d="M186.78,186.14h6.89v7.39h-6.89v-7.39ZM186.9,198.86h6.64v32.57h-6.64v-32.57Z"/>
      <path class="cls-1" d="M214.69,231.43v-3.88c-2.76,3.01-5.26,4.45-8.58,4.45-2.75,0-4.63-1-5.7-2.88-1.06-1.69-1.38-4.07-1.38-7.64v-22.61h6.77v21.86c0,3.57.88,5.01,3.32,5.01,1.69,0,3.38-.94,5.32-3.26v-23.62h6.7v32.57h-6.45Z"/>
      <path class="cls-1" d="M256.27,231.43v-22.11c0-3.63-1.32-4.76-3.07-4.76s-3.38,1.06-5.01,3.07v23.8h-6.64v-21.86c0-3.44-.75-5.01-2.94-5.01-1.75,0-3.57,1.32-5.14,3.32v23.55h-6.64v-32.57h6.45v3.82c2.44-2.82,5.14-4.45,8.21-4.45,3.26,0,5.14,1.63,6.01,4.45,2.63-2.94,5.14-4.45,8.39-4.45,5.2,0,6.95,3.95,6.95,10.02v23.18h-6.58Z"/>
      <polygon class="cls-1" points="57.04 295.82 57.04 250.85 80.41 250.85 80.41 257.61 64.5 257.61 64.5 269.33 76.34 269.33 76.34 275.84 64.5 275.84 64.5 295.82 57.04 295.82"/>
      <path class="cls-1" d="M81.95,295.82v-32.57h6.45v5.39c2.13-3.88,4.26-6.01,7.71-6.01.31,0,.63.06,1.06.12v6.83c-.5-.06-1-.13-1.32-.13-3.2,0-5.51,1.94-7.27,5.58v20.8h-6.64Z"/>
      <path class="cls-1" d="M100.35,250.53h6.89v7.39h-6.89v-7.39ZM100.48,263.25h6.64v32.57h-6.64v-32.57Z"/>
      <path class="cls-1" d="M127.39,295.64c-1.63.31-3.26.5-5.14.5-5.39,0-7.39-2-7.39-8.21v-19.1h-4.32v-5.58h4.32v-10.59h6.58v10.59h5.95v5.58h-5.95v17.98c0,2.32.88,3.26,2.82,3.26,1,0,2.07-.13,3.13-.44v6.01Z"/>
      <polygon class="cls-1" points="129.98 295.82 129.98 290.81 142.76 268.82 131.17 268.82 131.17 263.25 150.65 263.25 150.65 268.32 137.87 290.25 151.03 290.25 151.03 295.82 129.98 295.82"/>
      <rect class="cls-1" x="154.81" y="250.85" width="6.64" height="44.98"/>
      <path class="cls-1" d="M182.01,295.82l-.38-3.45c-2.57,2.63-5.45,4.01-8.83,4.01-4.57,0-7.33-3.13-7.33-8.58,0-3.7,1.31-6.51,4.13-8.58,2.51-1.94,6.64-3.32,11.71-4.82.38-4.26-.56-6.33-3.88-6.33-2.76,0-4.32,1.63-5.26,4.51l-5.39-1.32c1.44-5.26,4.63-8.64,11.02-8.64,7.08,0,10.02,3.38,10.02,10.27v16.79l.5,6.14h-6.33ZM181.14,279.1c-3.57,1-5.58,1.82-7.02,3.01-1.31,1.07-1.82,2.76-1.82,4.7,0,2.44,1.07,4.01,3.2,4.01s4.2-1.19,5.64-3.13v-8.58Z"/>
      <path class="cls-1" d="M193.41,295.82v-32.57h6.45v5.39c2.13-3.88,4.26-6.01,7.71-6.01.31,0,.63.06,1.06.12v6.83c-.5-.06-1-.13-1.32-.13-3.19,0-5.51,1.94-7.27,5.58v20.8h-6.64Z"/>
    </g>
  </g>
</svg>