<?xml version="1.0" encoding="UTF-8" standalone="no"?><!DOCTYPE svg PUBLIC "-//W3C//DTD SVG 1.1//EN" "http://www.w3.org/Graphics/SVG/1.1/DTD/svg11.dtd"><svg width="100%" height="100%" viewBox="0 0 17363 17363" version="1.1" xmlns="http://www.w3.org/2000/svg" xmlns:xlink="http://www.w3.org/1999/xlink" xml:space="preserve" xmlns:serif="http://www.serif.com/" style="fill-rule:evenodd;clip-rule:evenodd;stroke-linejoin:round;stroke-miterlimit:2;"><rect x="0" y="0" width="17361.1" height="17361.1" style="fill:#fff;"/><path id="grey" d="M8680.54,0c4790.92,0 8680.54,3889.62 8680.54,8680.54c0,4790.92 -3889.63,8680.54 -8680.54,8680.54c-4790.92,0 -8680.54,-3889.63 -8680.54,-8680.54c0,-4790.92 3889.62,-8680.54 8680.54,-8680.54Zm-0,173.613c4695.12,-0 8506.96,3811.83 8506.96,8506.96c0,4695.12 -3811.83,8506.96 -8506.96,8506.96c-4695.12,0 -8506.96,-3811.83 -8506.96,-8506.96c0,-4695.12 3811.83,-8506.96 8506.96,-8506.96Zm-520.15,9234.54c-4.071,14.242 -10.175,25.684 -18.313,34.334c-8.137,8.645 -19.325,15.258 -33.566,19.833c-14.242,4.579 -31.792,7.883 -52.646,9.921c-20.855,2.033 -46.538,3.05 -77.055,3.05c-31.537,-0 -58.237,-1.017 -80.108,-3.05c-21.871,-2.038 -39.929,-5.342 -54.171,-9.921c-14.241,-4.575 -24.92,-11.188 -32.041,-19.833c-7.121,-8.65 -12.717,-20.092 -16.788,-34.334l-413.512,-1490.78l-3.05,-0l-381.471,1490.78c-3.05,14.242 -8.138,25.684 -15.259,34.334c-7.12,8.645 -17.291,15.258 -30.516,19.833c-13.225,4.579 -30.263,7.883 -51.117,9.921c-20.854,2.033 -47.558,3.05 -80.108,3.05c-33.571,-0 -61.546,-1.017 -83.925,-3.05c-22.379,-2.038 -40.692,-5.342 -54.934,-9.921c-14.241,-4.575 -25.175,-11.188 -32.804,-19.833c-7.629,-8.65 -12.971,-20.092 -16.021,-34.334l-521.85,-1823.42c-6.104,-23.4 -9.412,-41.708 -9.92,-54.933c-0.509,-13.225 3.562,-23.396 12.208,-30.517c8.646,-7.121 22.633,-11.7 41.962,-13.733c19.325,-2.033 45.267,-3.05 77.817,-3.05c31.538,-0 56.458,0.762 74.771,2.287c18.308,1.525 32.296,4.321 41.962,8.392c9.663,4.071 16.275,9.663 19.834,16.783c3.562,7.121 6.358,16.28 8.391,27.467l444.034,1654.05l1.525,0l421.141,-1651c3.055,-11.191 6.867,-20.6 11.446,-28.229c4.575,-7.629 11.95,-13.479 22.125,-17.55c10.171,-4.067 24.667,-7.121 43.488,-9.154c18.821,-2.033 43.487,-3.05 74.004,-3.05c28.483,-0 51.117,1.017 67.904,3.05c16.783,2.033 30.263,5.087 40.433,9.154c10.175,4.071 17.55,9.921 22.125,17.55c4.58,7.629 8.392,17.038 11.446,28.229l453.184,1651l3.054,0l434.875,-1652.53c3.05,-10.171 6.104,-19.071 9.154,-26.7c3.054,-7.629 9.412,-13.479 19.075,-17.55c9.662,-4.067 23.396,-7.121 41.2,-9.154c17.8,-2.033 41.45,-3.05 70.95,-3.05c30.521,-0 54.679,1.271 72.479,3.812c17.804,2.542 30.775,7.375 38.913,14.496c8.137,7.121 11.95,17.292 11.441,30.517c-0.508,13.225 -3.304,31.537 -8.391,54.933l-523.375,1821.9Zm1152.04,18.309c0,8.137 -2.033,15.258 -6.104,21.362c-4.067,6.104 -11.188,10.938 -21.363,14.496c-10.17,3.562 -23.65,6.612 -40.433,9.158c-16.787,2.542 -37.896,3.813 -63.325,3.813c-24.412,-0 -45.267,-1.271 -62.562,-3.813c-17.292,-2.546 -31.025,-5.596 -41.196,-9.158c-10.175,-3.558 -17.296,-8.392 -21.363,-14.496c-4.071,-6.104 -6.104,-13.225 -6.104,-21.362l0,-1895.14c0,-8.138 2.288,-15.258 6.867,-21.363c4.575,-6.1 12.204,-10.933 22.887,-14.495c10.679,-3.559 24.413,-6.613 41.2,-9.155c16.784,-2.541 36.875,-3.812 60.271,-3.812c25.429,-0 46.538,1.271 63.325,3.812c16.783,2.542 30.263,5.596 40.433,9.155c10.175,3.562 17.296,8.395 21.363,14.495c4.071,6.105 6.104,13.225 6.104,21.363l0,1895.14Zm1660.16,-70.188c0,19.325 -1.02,35.858 -3.054,49.588c-2.033,13.733 -5.341,25.179 -9.916,34.333c-4.58,9.154 -10.175,15.767 -16.788,19.837c-6.608,4.071 -14.496,6.105 -23.65,6.105l-1165.77,-0c-26.45,-0 -47.812,-8.138 -64.087,-24.417c-16.275,-16.275 -24.413,-42.213 -24.413,-77.817l0,-56.458c0,-13.225 0.763,-25.433 2.288,-36.621c1.525,-11.192 4.833,-23.142 9.916,-35.858c5.088,-12.717 12.209,-26.959 21.363,-42.725c9.158,-15.767 20.346,-34.334 33.571,-55.696l910.95,-1425.17l-900.267,0c-10.175,0 -18.821,-2.033 -25.942,-6.104c-7.12,-4.067 -12.97,-10.425 -17.545,-19.071c-4.58,-8.646 -7.888,-19.837 -9.921,-33.571c-2.034,-13.733 -3.05,-29.754 -3.05,-48.066c-0,-20.342 1.016,-37.638 3.05,-51.88c2.033,-14.241 5.341,-25.937 9.921,-35.095c4.575,-9.155 10.425,-15.767 17.545,-19.834c7.121,-4.071 15.767,-6.104 25.942,-6.104l1098.63,0c27.467,0 49.084,7.883 64.85,23.65c15.771,15.767 23.654,39.929 23.654,72.479l0,59.509c0,16.279 -1.016,30.775 -3.054,43.487c-2.033,12.717 -5.596,25.688 -10.679,38.913c-5.087,13.225 -11.954,27.466 -20.6,42.725c-8.646,15.258 -20.092,33.058 -34.333,53.404l-906.371,1419.07l964.354,0c17.296,0 30.517,8.646 39.675,25.942c9.154,17.292 13.733,45.775 13.733,85.45Zm-6347.25,-3502.65c0,106.471 -12.545,202.434 -37.641,287.884c-25.092,85.445 -62.559,158.183 -112.404,218.2c-49.846,60.016 -112.409,106.133 -187.684,138.345c-75.275,32.213 -163.1,48.321 -263.466,48.321c-99.013,0 -184.634,-14.75 -256.859,-44.254c-72.225,-29.5 -131.904,-72.392 -179.037,-128.679c-47.134,-56.288 -82.225,-126.142 -105.284,-209.554c-23.058,-83.417 -34.587,-179.375 -34.587,-287.884c-0,-103.758 12.546,-198.025 37.637,-282.795c25.092,-84.771 62.734,-156.825 112.917,-216.167c50.183,-59.342 112.913,-105.117 188.192,-137.329c75.275,-32.213 163.1,-48.321 263.466,-48.321c96.98,-0 181.413,14.583 253.296,43.742c71.888,29.162 131.734,71.716 179.546,127.666c47.813,55.95 83.417,125.121 106.813,207.521c23.395,82.396 35.095,176.829 35.095,283.304Zm1155.6,487.263c0,10.85 -0.337,20.346 -1.016,28.483c-0.675,8.138 -1.863,15.258 -3.559,21.363c-1.696,6.104 -3.9,11.529 -6.612,16.275c-2.713,4.75 -7.459,10.512 -14.242,17.295c-6.783,6.78 -21.025,17.121 -42.725,31.025c-21.7,13.905 -48.658,27.467 -80.871,40.692c-32.212,13.221 -69.175,24.413 -110.879,33.567c-41.708,9.158 -87.317,13.733 -136.821,13.733c-85.45,0 -162.591,-14.242 -231.425,-42.725c-68.837,-28.483 -127.496,-70.529 -175.987,-126.137c-48.488,-55.613 -85.788,-124.275 -111.896,-205.996c-26.108,-81.717 -39.167,-175.813 -39.167,-282.288c0,-109.183 14.075,-206.5 42.217,-291.95c28.146,-85.45 67.65,-157.841 118.512,-217.183c50.863,-59.342 111.725,-104.608 182.596,-135.804c70.867,-31.196 149.367,-46.792 235.492,-46.792c37.979,0 74.937,3.558 110.883,10.679c35.942,7.121 69.171,16.109 99.692,26.959c30.517,10.85 57.642,23.395 81.379,37.637c23.733,14.242 40.179,25.942 49.338,35.096c9.154,9.154 15.087,16.108 17.8,20.854c2.712,4.746 4.916,10.342 6.612,16.783c1.696,6.442 3.05,14.071 4.071,22.888c1.017,8.817 1.525,19.329 1.525,31.537c-0,13.563 -0.683,25.092 -2.042,34.584c-1.362,9.496 -3.408,17.466 -6.137,23.908c-2.729,6.442 -5.967,11.188 -9.721,14.242c-3.75,3.05 -8.354,4.575 -13.813,4.575c-9.533,-0 -22.829,-6.613 -39.879,-19.834c-17.05,-13.225 -39.037,-27.808 -65.971,-43.741c-26.929,-15.938 -59.654,-30.521 -98.17,-43.742c-38.517,-13.225 -84.709,-19.837 -138.571,-19.837c-58.638,-0 -111.992,11.695 -160.059,35.095c-48.062,23.396 -89.141,57.813 -123.229,103.25c-34.087,45.438 -60.508,100.88 -79.258,166.321c-18.75,65.442 -28.125,140.213 -28.125,224.304c-0,83.413 9.033,157.167 27.1,221.255c18.067,64.083 43.975,117.658 77.725,160.725c33.75,43.062 75.167,75.616 124.254,97.654c49.088,22.041 104.654,33.062 166.696,33.062c52.496,0 98.342,-6.441 137.542,-19.329c39.204,-12.883 72.608,-27.296 100.216,-43.233c27.609,-15.938 50.279,-30.346 68.004,-43.234c17.73,-12.883 31.705,-19.325 41.93,-19.325c4.779,0 8.875,1.017 12.279,3.05c3.408,2.034 6.133,5.934 8.179,11.7c2.046,5.763 3.579,13.73 4.6,23.905c1.025,10.17 1.533,23.058 1.533,38.654Zm5323.29,159.708c-0,5.425 -1.396,10.175 -4.188,14.242c-2.791,4.071 -7.683,7.291 -14.67,9.666c-6.988,2.371 -15.896,4.409 -26.717,6.1c-10.825,1.696 -24.971,2.546 -42.433,2.546c-16.063,0 -29.859,-0.85 -41.38,-2.546c-11.525,-1.691 -20.604,-3.729 -27.245,-6.1c-6.638,-2.375 -11.355,-5.595 -14.146,-9.666c-2.792,-4.067 -4.188,-8.817 -4.188,-14.242l0,-1146.44l-2.033,0l-463.867,1151.53c-2.037,4.745 -4.916,8.816 -8.646,12.208c-3.733,3.387 -9.158,6.271 -16.279,8.646c-7.121,2.375 -15.596,4.066 -25.429,5.087c-9.833,1.017 -21.533,1.525 -35.096,1.525c-14.241,0 -26.45,-0.679 -36.621,-2.033c-10.175,-1.358 -18.65,-3.225 -25.433,-5.596c-6.779,-2.375 -12.037,-5.258 -15.767,-8.646c-3.729,-3.391 -6.27,-7.121 -7.629,-11.191l-443.521,-1151.53l-1.016,0l-0,1146.44c-0,5.425 -1.396,10.175 -4.192,14.242c-2.792,4.071 -7.679,7.291 -14.667,9.666c-6.991,2.371 -16.07,4.409 -27.245,6.1c-11.175,1.696 -25.492,2.546 -42.955,2.546c-16.762,0 -30.733,-0.85 -41.908,-2.546c-11.171,-1.691 -20.079,-3.729 -26.717,-6.1c-6.637,-2.375 -11.179,-5.595 -13.62,-9.666c-2.442,-4.067 -3.667,-8.817 -3.667,-14.242l-0,-1210.53c-0,-28.483 7.575,-48.829 22.725,-61.033c15.146,-12.209 32.017,-18.313 50.612,-18.313l107.434,0c22.029,0 41.308,2.033 57.841,6.104c16.53,4.067 30.992,10.513 43.384,19.325c12.391,8.817 22.721,20.009 30.987,33.571c8.263,13.563 15.496,29.5 21.696,47.813l376.383,953.166l5.084,0l391.646,-950.116c7.575,-20.346 15.841,-37.638 24.8,-51.88c8.962,-14.241 18.783,-25.6 29.462,-34.079c10.679,-8.475 22.567,-14.579 35.65,-18.308c13.088,-3.729 28.246,-5.596 45.475,-5.596l112.646,0c10.342,0 20.162,1.525 29.458,4.579c9.3,3.05 17.225,7.796 23.771,14.242c6.55,6.442 11.892,14.579 16.025,24.412c4.129,9.834 6.196,21.871 6.196,36.113l-0,1210.53Zm4593.92,-1214.6c-0,12.888 -0.675,24.075 -2.034,33.571c-1.354,9.496 -3.558,17.125 -6.612,22.887c-3.05,5.767 -6.779,10.005 -11.188,12.717c-4.408,2.713 -9.325,4.071 -14.75,4.071l-370.283,-0l-0,1141.35c-0,5.425 -1.354,10.175 -4.067,14.242c-2.712,4.071 -7.462,7.291 -14.241,9.666c-6.784,2.371 -15.767,4.409 -26.959,6.1c-11.187,1.696 -25.262,2.546 -42.216,2.546c-16.275,0 -30.18,-0.85 -41.705,-2.546c-11.529,-1.691 -20.687,-3.729 -27.466,-6.1c-6.784,-2.375 -11.529,-5.595 -14.242,-9.666c-2.712,-4.067 -4.071,-8.817 -4.071,-14.242l0,-1141.35l-370.279,-0c-5.425,-0 -10.342,-1.358 -14.75,-4.071c-4.408,-2.712 -7.967,-6.95 -10.679,-12.717c-2.717,-5.762 -4.917,-13.391 -6.613,-22.887c-1.695,-9.496 -2.545,-20.683 -2.545,-33.571c-0,-12.883 0.85,-24.242 2.545,-34.075c1.696,-9.833 3.896,-17.804 6.613,-23.908c2.712,-6.1 6.271,-10.509 10.679,-13.221c4.408,-2.717 9.325,-4.071 14.75,-4.071l915.529,0c5.425,0 10.342,1.354 14.75,4.071c4.409,2.712 8.138,7.121 11.188,13.221c3.054,6.104 5.258,14.075 6.612,23.908c1.359,9.833 2.034,21.192 2.034,34.075Zm-12746.2,1202.4c-2.713,9.492 -6.779,17.121 -12.204,22.887c-5.425,5.763 -12.888,10.171 -22.379,13.225c-9.496,3.05 -21.196,5.255 -35.096,6.613c-13.904,1.354 -31.029,2.033 -51.371,2.033c-21.025,0 -38.825,-0.679 -53.408,-2.033c-14.58,-1.358 -26.617,-3.563 -36.113,-6.613c-9.492,-3.054 -16.612,-7.462 -21.362,-13.225c-4.746,-5.766 -8.475,-13.395 -11.188,-22.887l-275.675,-993.858l-2.037,-0l-254.313,993.858c-2.033,9.492 -5.425,17.121 -10.171,22.887c-4.75,5.763 -11.529,10.171 -20.346,13.225c-8.816,3.05 -20.175,5.255 -34.079,6.613c-13.9,1.354 -31.704,2.033 -53.404,2.033c-22.379,0 -41.029,-0.679 -55.95,-2.033c-14.921,-1.358 -27.125,-3.563 -36.621,-6.613c-9.496,-3.054 -16.783,-7.462 -21.871,-13.225c-5.087,-5.766 -8.645,-13.395 -10.679,-22.887l-347.904,-1215.62c-4.067,-15.6 -6.271,-27.808 -6.608,-36.625c-0.342,-8.812 2.371,-15.596 8.137,-20.341c5.763,-4.75 15.088,-7.8 27.975,-9.159c12.884,-1.354 30.175,-2.033 51.879,-2.033c21.021,-0 37.638,0.508 49.846,1.525c12.204,1.017 21.529,2.883 27.975,5.596c6.442,2.712 10.85,6.441 13.221,11.191c2.375,4.746 4.242,10.85 5.596,18.309l296.021,1102.7l1.016,-0l280.763,-1100.67c2.033,-7.458 4.579,-13.729 7.629,-18.817c3.05,-5.087 7.967,-8.987 14.75,-11.7c6.783,-2.712 16.446,-4.745 28.992,-6.104c12.546,-1.354 28.991,-2.033 49.337,-2.033c18.988,-0 34.079,0.679 45.267,2.033c11.192,1.359 20.175,3.392 26.958,6.104c6.779,2.713 11.7,6.613 14.75,11.7c3.05,5.088 5.596,11.359 7.629,18.817l302.125,1100.67l2.034,-0l289.916,-1101.69c2.034,-6.779 4.071,-12.712 6.105,-17.8c2.033,-5.087 6.27,-8.987 12.716,-11.7c6.442,-2.712 15.596,-4.745 27.467,-6.104c11.867,-1.354 27.633,-2.033 47.3,-2.033c20.346,-0 36.45,0.85 48.321,2.542c11.866,1.695 20.512,4.916 25.937,9.666c5.425,4.746 7.971,11.529 7.629,20.346c-0.337,8.817 -2.204,21.021 -5.591,36.621l-348.921,1214.6Zm4009,12.204c-0,5.425 -1.359,10.175 -4.071,14.242c-2.713,4.071 -7.458,7.291 -14.242,9.666c-6.783,2.371 -15.766,4.409 -26.958,6.1c-11.188,1.696 -24.921,2.546 -41.196,2.546c-17.633,0 -31.875,-0.85 -42.725,-2.546c-10.85,-1.691 -19.667,-3.729 -26.45,-6.1c-6.783,-2.375 -11.529,-5.595 -14.242,-9.666c-2.712,-4.067 -4.066,-8.817 -4.066,-14.242l-0,-583.9l-599.163,0l0,583.9c0,5.425 -1.358,10.175 -4.071,14.242c-2.712,4.071 -7.458,7.291 -14.241,9.666c-6.779,2.371 -15.767,4.409 -26.959,6.1c-11.187,1.696 -25.258,2.546 -42.212,2.546c-16.279,0 -30.179,-0.85 -41.708,-2.546c-11.53,-1.691 -20.684,-3.729 -27.467,-6.1c-6.783,-2.375 -11.529,-5.595 -14.242,-9.666c-2.712,-4.067 -4.071,-8.817 -4.071,-14.242l0,-1263.42c0,-5.425 1.359,-10.175 4.071,-14.242c2.713,-4.07 7.459,-7.291 14.242,-9.666c6.783,-2.371 15.937,-4.409 27.467,-6.104c11.529,-1.692 25.429,-2.542 41.708,-2.542c16.954,-0 31.025,0.85 42.212,2.542c11.192,1.695 20.18,3.733 26.959,6.104c6.783,2.375 11.529,5.596 14.241,9.666c2.713,4.067 4.071,8.817 4.071,14.242l0,526.933l599.163,0l-0,-526.933c-0,-5.425 1.354,-10.175 4.066,-14.242c2.713,-4.07 7.459,-7.291 14.242,-9.666c6.783,-2.371 15.6,-4.409 26.45,-6.104c10.85,-1.692 25.092,-2.542 42.725,-2.542c16.275,-0 30.008,0.85 41.196,2.542c11.192,1.695 20.175,3.733 26.958,6.104c6.784,2.375 11.529,5.596 14.242,9.666c2.712,4.067 4.071,8.817 4.071,14.242l-0,1263.42Zm7688.38,-2.033c-0,5.425 -1.184,10.341 -3.559,14.75c-2.375,4.408 -6.95,7.966 -13.733,10.683c-6.783,2.713 -15.937,4.917 -27.467,6.608c-11.529,1.696 -26.445,2.546 -44.758,2.546c-23.737,0 -43.062,-1.016 -57.983,-3.054c-14.921,-2.033 -26.109,-5.762 -33.571,-11.187c-7.458,-5.425 -13.563,-11.53 -18.308,-18.313l-484.213,-658.162l0,658.162c0,4.75 -1.358,9.325 -4.071,13.733c-2.712,4.409 -7.458,7.8 -14.241,10.175c-6.78,2.371 -15.767,4.409 -26.954,6.1c-11.192,1.696 -25.263,2.546 -42.217,2.546c-16.275,0 -30.179,-0.85 -41.709,-2.546c-11.529,-1.691 -20.683,-3.729 -27.466,-6.1c-6.779,-2.375 -11.529,-5.766 -14.242,-10.175c-2.712,-4.408 -4.067,-8.983 -4.067,-13.733l0,-1263.42c0,-5.425 1.355,-10.175 4.067,-14.242c2.713,-4.07 7.463,-7.291 14.242,-9.666c6.783,-2.371 15.937,-4.409 27.467,-6.104c11.529,-1.692 25.433,-2.542 41.708,-2.542c16.954,-0 31.025,0.85 42.217,2.542c11.187,1.695 20.174,3.733 26.954,6.104c6.783,2.375 11.529,5.596 14.241,9.666c2.713,4.067 4.071,8.817 4.071,14.242l0,584.917l465.9,-584.917c4.071,-6.104 8.817,-11.192 14.242,-15.258c5.425,-4.071 12.037,-7.292 19.837,-9.667c7.8,-2.371 17.292,-4.237 28.484,-5.596c11.191,-1.354 25.6,-2.033 43.233,-2.033c17.633,-0 31.875,0.85 42.725,2.542c10.85,1.695 19.496,3.9 25.937,6.612c6.446,2.713 10.855,6.104 13.225,10.175c2.375,4.067 3.563,8.475 3.563,13.225c-0,8.817 -2.204,17.629 -6.613,26.446c-4.408,8.817 -12.716,21.025 -24.925,36.621l-436.4,521.85l469.971,624.596c11.529,17.633 18.479,29.67 20.854,36.112c2.376,6.442 3.559,11.696 3.559,15.767Zm-5326.33,-43.742c0,13.563 -2.279,25.092 -6.833,34.588c-4.558,9.491 -10.517,17.291 -17.883,23.395c-7.363,6.105 -15.604,10.513 -24.725,13.225c-9.117,2.713 -18.238,4.067 -27.363,4.067l-57.854,0c-18.237,0 -34.196,-1.862 -47.875,-5.592c-13.679,-3.733 -26.654,-10.512 -38.925,-20.345c-12.271,-9.834 -24.546,-23.23 -36.821,-40.184c-12.275,-16.954 -25.3,-38.654 -39.075,-65.104l-401.562,-748.696c-20.992,-38.658 -42.15,-79.179 -63.475,-121.562c-21.325,-42.388 -41.175,-83.584 -59.55,-123.596l-2.034,-0c1.359,48.829 2.375,98.671 3.055,149.537c0.675,50.863 1.016,101.384 1.016,151.567l0,794.475c0,4.75 -1.433,9.325 -4.291,13.733c-2.863,4.409 -7.692,7.8 -14.488,10.175c-6.8,2.371 -15.746,4.409 -26.837,6.1c-11.096,1.696 -25.234,2.546 -42.409,2.546c-17.175,0 -31.308,-0.85 -42.4,-2.546c-11.087,-1.691 -19.854,-3.729 -26.296,-6.1c-6.441,-2.375 -11.095,-5.766 -13.954,-10.175c-2.862,-4.408 -4.291,-8.983 -4.291,-13.733l-0,-1214.6c-0,-27.125 7.7,-46.454 23.1,-57.983c15.404,-11.529 32.2,-17.292 50.395,-17.292l86.1,0c20.292,0 37.263,1.696 50.917,5.088c13.654,3.387 25.904,8.983 36.75,16.783c10.846,7.8 21.342,18.65 31.496,32.55c10.15,13.904 20.8,31.367 31.946,52.392l308.704,577.8c19.012,35.262 37.362,69.679 55.058,103.25c17.696,33.57 34.738,66.629 51.125,99.183c16.388,32.55 32.609,64.596 48.663,96.129c16.054,31.533 31.95,63.238 47.683,95.113l1.017,-0c-1.354,-53.575 -2.204,-109.355 -2.542,-167.338c-0.337,-57.983 -0.508,-113.762 -0.508,-167.337l-0,-714.113c-0,-4.746 1.429,-9.154 4.291,-13.225c2.863,-4.067 7.692,-7.629 14.488,-10.679c6.796,-3.054 15.742,-5.258 26.837,-6.613c11.096,-1.358 25.584,-2.033 43.471,-2.033c15.746,0 29.346,0.675 40.796,2.033c11.45,1.355 20.396,3.559 26.838,6.613c6.441,3.05 11.091,6.612 13.954,10.679c2.862,4.071 4.291,8.479 4.291,13.225l0,1214.6Zm4214.5,45.775c0,5.425 -1.016,10.175 -3.054,14.242c-2.033,4.071 -6.441,7.462 -13.225,10.175c-6.779,2.712 -16.275,4.746 -28.479,6.104c-12.208,1.354 -28.483,2.033 -48.829,2.033c-17.633,0 -32.046,-0.679 -43.233,-2.033c-11.192,-1.358 -20.175,-3.563 -26.959,-6.613c-6.783,-3.054 -12.037,-7.291 -15.766,-12.716c-3.73,-5.425 -6.95,-12.209 -9.663,-20.346l-121.054,-310.263c-14.242,-35.262 -28.992,-67.645 -44.25,-97.145c-15.258,-29.5 -33.4,-54.934 -54.425,-76.296c-21.021,-21.363 -45.775,-37.975 -74.258,-49.846c-28.484,-11.867 -62.73,-17.8 -102.742,-17.8l-116.983,-0l-0,560.504c-0,5.425 -1.53,10.175 -4.58,14.242c-3.054,4.071 -7.8,7.291 -14.241,9.666c-6.442,2.371 -15.259,4.409 -26.45,6.1c-11.188,1.696 -25.263,2.546 -42.217,2.546c-16.954,0 -31.025,-0.85 -42.212,-2.546c-11.192,-1.691 -20.18,-3.729 -26.959,-6.1c-6.783,-2.375 -11.529,-5.595 -14.241,-9.666c-2.713,-4.067 -4.071,-8.817 -4.071,-14.242l-0,-1218.67c-0,-26.45 6.954,-44.929 20.854,-55.441c13.904,-10.513 28.654,-15.767 44.25,-15.767l279.746,0c33.229,0 60.866,0.846 82.904,2.542c22.042,1.696 41.879,3.562 59.512,5.596c50.863,8.816 95.792,22.72 134.784,41.708c38.996,18.987 71.716,43.062 98.166,72.225c26.45,29.162 46.284,62.558 59.509,100.2c13.225,37.637 19.837,79.175 19.837,124.612c0,44.08 -5.933,83.584 -17.804,118.509c-11.867,34.925 -28.992,65.783 -51.371,92.571c-22.379,26.787 -49.166,50.016 -80.362,69.683c-31.196,19.667 -66.121,36.279 -104.775,49.846c21.7,9.491 41.366,21.529 59,36.112c17.633,14.579 34.079,32.042 49.337,52.388c15.259,20.346 29.667,43.741 43.234,70.191c13.562,26.446 27.125,56.288 40.687,89.517l118.004,289.917c9.492,24.412 15.596,41.537 18.309,51.371c2.712,9.833 4.07,17.462 4.07,22.887Zm-1097.62,-35.604c5.425,14.921 8.308,26.958 8.646,36.112c0.341,9.159 -2.205,16.109 -7.63,20.855c-5.425,4.75 -14.412,7.8 -26.958,9.158c-12.546,1.354 -29.329,2.033 -50.354,2.033c-21.021,0 -37.804,-0.508 -50.354,-1.525c-12.546,-1.021 -22.038,-2.712 -28.479,-5.087c-6.446,-2.375 -11.192,-5.596 -14.242,-9.663c-3.054,-4.071 -5.938,-9.158 -8.65,-15.262l-112.913,-320.434l-547.283,0l-107.829,316.367c-2.033,6.104 -4.746,11.358 -8.138,15.767c-3.391,4.408 -8.308,8.137 -14.75,11.191c-6.441,3.05 -15.595,5.255 -27.466,6.613c-11.867,1.354 -27.296,2.033 -46.284,2.033c-19.666,0 -35.775,-0.85 -48.32,-2.546c-12.546,-1.691 -21.363,-4.916 -26.45,-9.662c-5.084,-4.746 -7.459,-11.7 -7.117,-20.854c0.337,-9.154 3.221,-21.192 8.646,-36.113l441.487,-1222.74c2.713,-7.459 6.271,-13.563 10.679,-18.309c4.409,-4.75 10.85,-8.479 19.33,-11.191c8.475,-2.713 19.329,-4.579 32.55,-5.596c13.225,-1.017 30.012,-1.525 50.354,-1.525c21.704,-0 39.675,0.508 53.916,1.525c14.242,1.017 25.771,2.883 34.588,5.596c8.812,2.712 15.596,6.612 20.342,11.7c4.75,5.083 8.479,11.358 11.191,18.816l441.488,1222.74Zm-4396.58,-10.171c0,12.208 -0.679,22.888 -2.033,32.042c-1.358,9.158 -3.729,16.787 -7.121,22.891c-3.391,6.1 -7.291,10.509 -11.7,13.221c-4.408,2.713 -9.325,4.071 -14.75,4.071l-631.712,0c-15.6,0 -30.35,-5.254 -44.25,-15.767c-13.904,-10.512 -20.854,-28.991 -20.854,-55.441l-0,-1173.91c-0,-26.45 6.95,-44.929 20.854,-55.441c13.9,-10.513 28.65,-15.767 44.25,-15.767l624.591,0c5.425,0 10.342,1.354 14.75,4.071c4.409,2.712 7.971,7.121 10.684,13.221c2.712,6.104 4.916,13.733 6.612,22.891c1.696,9.155 2.542,20.513 2.542,34.075c-0,12.209 -0.846,22.888 -2.542,32.046c-1.696,9.154 -3.9,16.613 -6.612,22.379c-2.713,5.763 -6.275,10 -10.684,12.717c-4.408,2.713 -9.325,4.067 -14.75,4.067l-514.729,-0l0,413.004l441.488,-0c5.425,-0 10.341,1.525 14.75,4.579c4.408,3.05 8.137,7.288 11.191,12.717c3.05,5.425 5.255,12.883 6.613,22.379c1.354,9.492 2.033,20.683 2.033,33.567c0,12.208 -0.679,22.72 -2.033,31.537c-1.358,8.817 -3.563,15.938 -6.613,21.363c-3.054,5.425 -6.783,9.325 -11.191,11.695c-4.409,2.375 -9.325,3.563 -14.75,3.563l-441.488,-0l0,470.987l521.85,0c5.425,0 10.342,1.355 14.75,4.067c4.409,2.713 8.309,6.954 11.7,12.717c3.392,5.766 5.763,13.225 7.121,22.379c1.354,9.158 2.033,20.517 2.033,34.079Zm-3603.11,-588.987c0,-74.6 -6.604,-143.942 -19.812,-208.03c-13.209,-64.087 -35.221,-119.695 -66.042,-166.829c-30.821,-47.133 -71.967,-83.925 -123.438,-110.375c-51.47,-26.446 -115.137,-39.671 -190.995,-39.671c-75.863,0 -139.53,14.242 -191.005,42.725c-51.479,28.484 -93.304,66.459 -125.475,113.934c-32.17,47.471 -55.195,102.912 -69.083,166.321c-13.887,63.408 -20.829,130.037 -20.829,199.887c-0,77.313 6.433,148.521 19.304,213.625c12.867,65.104 34.542,121.221 65.021,168.354c30.483,47.134 71.292,83.754 122.429,109.863c51.138,26.112 115.313,39.166 192.517,39.166c76.537,0 140.883,-14.241 193.037,-42.725c52.159,-28.483 94.15,-66.97 125.984,-115.458c31.829,-48.492 54.52,-104.608 68.066,-168.354c13.546,-63.75 20.321,-131.229 20.321,-202.433Zm7433.08,-480.146l-1.02,-0l-226.846,656.129l457.762,-0l-229.896,-656.129Zm1400.76,190.225c-0,-51.538 -11.53,-95.113 -34.588,-130.717c-23.054,-35.604 -61.712,-61.204 -115.967,-76.8c-16.954,-4.75 -36.112,-8.137 -57.47,-10.175c-21.363,-2.033 -49.338,-3.05 -83.925,-3.05l-147.5,0l-0,443.521l170.895,-0c46.117,-0 85.959,-5.596 119.53,-16.783c33.566,-11.192 61.541,-26.788 83.92,-46.796c22.38,-20.004 38.825,-43.571 49.338,-70.696c10.512,-27.129 15.767,-56.629 15.767,-88.504Z" style="fill:#656363;"/><path id="green" d="M1853.51,6859.29c-10.912,1.366 -20.991,5.441 -29.537,11.525c-8.563,6.066 -15.725,14.237 -20.609,24.091c-1.4,2.809 -2.6,5.721 -3.583,8.734l-611.937,1754.31c-1.392,3.758 -2.45,7.675 -3.13,11.721c-1.091,6.4 -1.191,12.804 -0.399,19.033c1.366,10.917 5.441,20.996 11.524,29.538c6.067,8.562 14.242,15.725 24.096,20.612c5.621,2.8 11.705,4.813 18.1,5.892c4.046,0.687 8.096,0.983 12.096,0.904l1032.41,0l-0,4157.9c-0,35.934 29.175,65.104 65.104,65.104c35.933,0 65.104,-29.17 65.104,-65.104l0,-4223.42l-0.004,-0.416l-0.017,-0.842l-0.025,-0.833l-0.016,-0.417l-0.021,-0.417l-0.05,-0.833l-0.025,-0.412l-0.029,-0.413l-0.034,-0.412l-0.075,-0.825l-0.041,-0.409l-0.042,-0.412c-1.813,-16.784 -10.017,-31.667 -22.125,-42.154l-0.3,-0.259l-0.296,-0.254l-0.6,-0.5l-0.912,-0.737l-0.617,-0.484l-0.308,-0.237l-0.625,-0.475l-0.313,-0.234l-0.317,-0.229l-0.316,-0.233l-0.317,-0.225l-0.321,-0.229l-0.321,-0.221l-0.32,-0.225l-0.325,-0.221l-0.325,-0.217l-0.659,-0.433l-0.329,-0.212l-0.329,-0.209l-0.667,-0.416l-0.333,-0.205l-0.338,-0.204l-0.675,-0.4l-0.683,-0.391l-0.342,-0.192l-0.691,-0.383l-0.346,-0.188l-0.346,-0.183l-0.35,-0.184l-0.7,-0.358l-0.354,-0.179l-0.354,-0.171l-0.354,-0.175l-0.359,-0.171l-1.075,-0.5l-0.362,-0.158l-0.363,-0.163l-0.362,-0.158l-0.363,-0.154l-0.366,-0.154l-0.734,-0.3l-0.741,-0.292l-0.742,-0.283l-0.75,-0.275l-0.375,-0.134l-0.375,-0.129l-0.758,-0.258l-0.38,-0.125l-0.379,-0.121l-0.383,-0.121l-0.379,-0.117l-0.384,-0.116l-0.387,-0.113l-0.383,-0.108l-0.388,-0.112l-0.775,-0.209l-0.392,-0.1l-0.387,-0.1l-0.392,-0.096l-0.396,-0.096l-0.783,-0.183l-0.396,-0.087l-0.792,-0.167l-0.8,-0.158l-0.395,-0.075l-0.4,-0.071l-0.405,-0.071l-0.4,-0.071l-1.212,-0.187l-0.404,-0.059l-0.404,-0.054l-0.409,-0.054l-0.816,-0.1l-0.409,-0.046l-0.408,-0.041l-0.412,-0.042l-0.409,-0.038l-0.825,-0.066l-0.416,-0.029l-0.413,-0.03l-0.417,-0.025l-0.412,-0.02l-0.417,-0.021l-0.833,-0.034l-0.421,-0.012l-0.417,-0.008l-1.262,-0.013l-1007.08,0l567.337,-1626.45l3714.82,0c35.929,0 65.104,-29.171 65.104,-65.104c0,-35.929 -29.175,-65.104 -65.104,-65.104l-3759.8,-0c-3.166,-0.063 -6.316,0.112 -9.425,0.508l0,-0.008Zm13542.6,-0.509l-3759.79,0c-35.933,0 -65.104,29.175 -65.104,65.104c-0,35.934 29.171,65.105 65.104,65.105l3714.82,-0l567.337,1626.45l-1007.09,-0c-30.455,0.008 -56.05,20.97 -63.138,49.233l-0.1,0.392l-0.183,0.783l-0.092,0.396l-0.087,0.396l-0.167,0.791l-0.079,0.396l-0.079,0.4l-0.15,0.8l-0.067,0.4l-0.071,0.404l-0.062,0.4l-0.067,0.404l-0.117,0.809l-0.054,0.408l-0.054,0.404l-0.1,0.817l-0.046,0.408l-0.041,0.413l-0.042,0.408l-0.038,0.413l-0.066,0.825l-0.059,0.825l-0.025,0.416l-0.041,0.834l-0.034,0.833l-0.012,0.417l-0.009,0.421l-0.012,1.258l-0,4223c-0,35.933 29.175,65.104 65.104,65.104c35.933,0 65.104,-29.171 65.104,-65.104l0,-4157.9l1032.41,-0c4.004,0.079 8.054,-0.217 12.096,-0.904c6.4,-1.08 12.483,-3.092 18.104,-5.892c9.854,-4.888 18.029,-12.05 24.096,-20.613c6.083,-8.545 10.154,-18.625 11.52,-29.537c0.796,-6.229 0.692,-12.638 -0.395,-19.033c-0.684,-4.046 -1.738,-7.963 -3.13,-11.721l-611.937,-1754.31c-0.988,-3.012 -2.188,-5.929 -3.583,-8.733c-4.888,-9.854 -12.05,-18.029 -20.613,-24.092c-8.546,-6.087 -18.625,-10.158 -29.537,-11.525c-3.109,-0.396 -6.255,-0.566 -9.425,-0.508l-0,0.008Zm-6780.62,-5439.38l-1052.76,815.067c-8.133,6.3 -14.366,14.15 -18.6,22.808l-0.05,0.1c-2.329,4.796 -4.091,9.846 -5.191,15.063c-0.938,4.441 -1.392,8.971 -1.409,13.508l0,1289.78l-2667.6,1250.21c-32.538,15.25 -46.571,54.046 -31.325,86.58c15.25,32.537 54.045,46.57 86.579,31.325l2704.14,-1267.33c1.684,-0.758 3.329,-1.587 4.934,-2.479c9.775,-5.421 17.658,-13.062 23.316,-21.987c5.679,-8.909 9.254,-19.292 10.013,-30.442c0.129,-1.833 0.179,-3.675 0.15,-5.517l-0,-1298.2l1012.9,-784.212l1012.9,784.212l-0,1298.19c-0.025,1.846 0.025,3.692 0.154,5.525c0.758,11.129 4.321,21.492 9.979,30.388c5.638,8.912 13.496,16.55 23.242,21.975c1.604,0.9 3.25,1.733 4.937,2.495l2691.44,1267.33c32.508,15.308 71.329,1.341 86.637,-31.167c15.309,-32.508 1.342,-71.329 -31.166,-86.638l-2655.02,-1250.17l0,-1289.86c0,-10.287 -2.392,-20.021 -6.646,-28.671l-0.05,-0.1c-2.362,-4.775 -5.279,-9.258 -8.729,-13.325c-2.937,-3.462 -6.242,-6.591 -9.821,-9.383l-1052.76,-815.067l-0,-834.383c-0,-35.929 -29.171,-65.104 -65.104,-65.104c-35.929,-0 -65.104,29.175 -65.104,65.104l-0,834.383Z" style="fill:#6cbd46;"/><path id="blue" d="M2350.1,13774.4c82.208,-41.384 181.854,-88.975 319.929,-129.838c130.271,-38.554 294.742,-68.608 509.113,-90.087c225.379,-22.584 506.196,-34.884 862.737,-22.717c607.709,20.742 1434.27,107.567 2576.5,309.1c213.471,37.113 509.554,137.242 859.325,229.113c393.242,103.287 853.221,197.012 1338.81,184.75c469.304,-11.855 962.108,-122.963 1442.13,-415.575c496.717,-304.888 799.913,-446.225 1030.81,-475.98c201.13,-25.92 344.142,36.613 515.775,145.242c134.08,84.867 284.367,196.975 486.963,319.796c383.183,231.612 862.042,343.55 1323.79,346.037c287.77,1.55 568.883,-38.733 815.17,-119.141c35.4,-11.559 70.238,-23.525 103.88,-37.304c84.433,-34.588 161.758,-77.43 234.566,-121.884c51.242,-31.291 100.125,-63.579 145,-98.921c2.359,-1.779 2.825,-5.141 1.046,-7.5c-1.783,-2.354 -5.142,-2.825 -7.5,-1.041c-42.983,31.121 -88.679,60.662 -137.758,86.808c-75.45,40.196 -158.359,71.654 -245,101.388c-35.304,12.112 -71.104,24.241 -107.775,35.225c-243.175,72.82 -518.884,108.066 -800.763,101.545c-448.571,-10.37 -912.383,-125.008 -1280.96,-356.179c-252.738,-158.016 -423.067,-298.033 -583.2,-387.921c-149.396,-83.858 -290.65,-125.816 -475.317,-103.979c-239.842,28.363 -557.158,169.154 -1075.16,480.958c-462.55,280.367 -937.08,384.134 -1388.6,396.055c-474.613,12.529 -924.284,-76.713 -1309.36,-174.955c-353.7,-90.237 -653.787,-187.358 -869.604,-222.812c-1149.66,-185.908 -1980.75,-262.175 -2591.2,-273.175c-359.737,-6.483 -643.175,7.883 -869.554,38.508c-215.833,29.196 -379.15,73.588 -509.337,117.329c-137.488,46.192 -237.488,94.188 -319.379,137.642c-2.625,1.354 -3.655,4.588 -2.296,7.213c1.354,2.625 4.587,3.654 7.212,2.3Z" style="fill:#00a7ff;"/><path id="darker-light-grey" d="M9908.62,12577.6c0,0 -0.079,451.159 -666.975,451.159c-613.967,-0 -622.975,-450.45 -622.975,-450.45c0,-0 -0.608,6.683 -2.804,18.425l-0,-1248.29l1292.75,-0l0,1229.16Zm-2584.66,30.28c-7.796,100.233 -74.95,420.879 -615.234,420.879c-533.816,-0 -605.766,-313.013 -614.929,-417.2c0.146,-7.255 0.046,-13.496 -0.141,-18.546l-0.001,-1244.57l1230.31,-0l-0,1259.44Zm5168.46,-30.279c0,0 2.104,451.159 -645.954,451.159c-636.263,-0 -645.95,-451.159 -645.95,-451.159c-0,0 -0.075,4.521 -0.85,12.646l-0,-1241.8l1292.75,0l0,1229.16Zm-7631.96,0.709l-0,-1230.72l-1231.39,0l-0.779,0.85l-0,1229.87c-0,-0 -3.263,427.946 546.325,449.6l91.316,-0c593.184,-21.654 594.53,-449.6 594.53,-449.6Zm1233.25,32.396l-0.067,-0.805l0,6.996c0.063,-1.841 0.108,-3.616 0.142,-5.337l-0.075,-0.854Z" style="fill:#e0e0e0;"/><path id="light-grey" d="M9601.12,10003l-984.421,-0l0,1345.4l1291.9,-0l-307.483,-1345.4Zm-1956.7,-0l-927.554,-0l-623.221,1345.4l1231.15,-0l319.621,-1345.4Zm3929.53,-0l-984.421,-0l610.883,1345.4l1292.01,-0l-918.475,-1345.4Zm-7944.92,1344.62l-0.721,0.788l1232.17,-0l935.196,-1345.4l-934.429,-0l-1232.22,1344.62Z" style="fill:#f1f0f0;"/><path id="darker-red" d="M6093.67,12593c-0.35,-9.421 -1.017,-14.704 -1.017,-14.704c0,-0 -0.633,11.804 1.017,31.592l-0,6.995c-3.742,109.054 -62.659,411.863 -601.421,411.863c-626.571,-0 -631.763,-450.45 -631.763,-450.45l0,-1229.87l1233.18,0l-0,1244.57Zm2523.06,-1.025c-12.913,75.383 -103.692,436.771 -657.008,436.771c-607.8,-0 -634.188,-436.063 -634.88,-450.104c-0.008,-0.23 -0.016,-0.346 -0.016,-0.346c-0,-0 0.004,0.116 0.016,0.346c0.084,2 0.43,12.57 -0.866,29.225l-0,-1259.44l1292.75,0l0,1243.55Zm2583.81,-14.388c-0.001,0.001 -7.496,451.159 -645.955,451.159c-620.945,-0 -645.954,-451.158 -645.954,-451.158l0,-1229.16l1291.91,0l0.001,1229.16Zm2516.3,0.709c-0,-0 -6.454,450.45 -598.009,450.45c-613.954,-0 -626.391,-451.158 -626.391,-451.158l-0,-1229.16l1224.4,0l-0,1229.87Z" style="fill:#be1e1e;"/><path id="red" d="M10589.5,10003l-988.4,-0l307.483,1345.4l1291.8,-0l-610.883,-1345.4Zm-1972.82,-0l-974.717,-0l-317.187,1345.4l1291.9,-0l-0,-1345.4Zm-1899.84,-0l-921.208,-0l-934.429,1345.4l1232.42,-0l623.22,-1345.4Zm5775.54,-0l-913.442,-0l913.442,1345.4l1224.4,-0l-1224.4,-1345.4Z" style="fill:#db2b31;"/></svg>