<?xml version="1.0" encoding="utf-8"?>
<!-- Generator: Adobe Illustrator 28.3.0, SVG Export Plug-In . SVG Version: 6.00 Build 0)  -->
<svg version="1.1" id="Ebene_1" xmlns="http://www.w3.org/2000/svg" xmlns:xlink="http://www.w3.org/1999/xlink" x="0px" y="0px"
	 viewBox="0 0 24 24" style="enable-background:new 0 0 24 24;" xml:space="preserve">
<style type="text/css">
	.st0{fill:#FFFFFF;}
</style>
<circle class="st0" cx="12" cy="12" r="12"/>
<path d="M15.5,11c0.4,0,0.8-0.1,1.1-0.4c0.3-0.3,0.4-0.6,0.4-1.1s-0.1-0.8-0.4-1.1C16.3,8.1,15.9,8,15.5,8s-0.8,0.1-1.1,0.4
	S14,9.1,14,9.5s0.1,0.8,0.4,1.1S15.1,11,15.5,11z M8.5,11c0.4,0,0.8-0.1,1.1-0.4C9.9,10.3,10,9.9,10,9.5S9.9,8.7,9.6,8.4
	C9.3,8.1,8.9,8,8.5,8C8.1,8,7.7,8.1,7.4,8.4S7,9.1,7,9.5s0.1,0.8,0.4,1.1S8.1,11,8.5,11z M12,17.5c1.1,0,2.2-0.3,3.1-1
	c0.9-0.6,1.6-1.5,2-2.5h-1.7c-0.4,0.6-0.9,1.1-1.5,1.5S12.7,16,12,16s-1.4-0.2-2-0.5S8.9,14.6,8.6,14H6.9c0.4,1.1,1.1,1.9,2,2.5
	C9.8,17.2,10.9,17.5,12,17.5z M12,22c-1.4,0-2.7-0.3-3.9-0.8S5.8,20,4.9,19.1c-0.9-0.9-1.6-2-2.1-3.2S2,13.4,2,12s0.3-2.7,0.8-3.9
	S4,5.8,4.9,4.9s2-1.6,3.2-2.1S10.6,2,12,2s2.7,0.3,3.9,0.8s2.3,1.2,3.2,2.1s1.6,2,2.1,3.2C21.7,9.3,22,10.6,22,12s-0.3,2.7-0.8,3.9
	c-0.5,1.2-1.2,2.3-2.1,3.2c-0.9,0.9-2,1.6-3.2,2.1S13.4,22,12,22z M12,20c2.2,0,4.1-0.8,5.7-2.3c1.5-1.5,2.3-3.4,2.3-5.7
	s-0.8-4.1-2.3-5.7C16.1,4.8,14.2,4,12,4S7.9,4.8,6.3,6.3S4,9.8,4,12s0.8,4.1,2.3,5.7C7.9,19.2,9.8,20,12,20z"/>
</svg>
