<?xml version="1.0" encoding="UTF-8"?>
<svg xmlns="http://www.w3.org/2000/svg" viewBox="0 0 1000.07 1000.07">
  <defs>
    <style>
      .cls-1 {
        fill: #caade2;
      }

      .cls-1, .cls-2, .cls-3, .cls-4, .cls-5, .cls-6, .cls-7, .cls-8, .cls-9 {
        stroke-width: 0px;
      }

      .cls-2 {
        fill: #9e5bb5;
      }

      .cls-3 {
        fill: #6f2875;
      }

      .cls-4 {
        fill: #b57dd4;
      }

      .cls-10 {
        fill: none;
        stroke: #48164c;
        stroke-miterlimit: 10;
        stroke-width: 4px;
      }

      .cls-5 {
        fill: #310e30;
      }

      .cls-6 {
        fill: #fff;
      }

      .cls-7 {
        fill: #c5c6c6;
      }

      .cls-8 {
        fill: #48164c;
      }

      .cls-9 {
        fill: #fcfcfe;
      }
    </style>
  </defs>
  <g id="wings">
    <g>
      <path class="cls-2" d="M290.54,306.61l120.4,178c-15.4,33-53.7,80.9-63.8,116-10.5,2.1-22,5.8-30.7,8.7-27.8,24.7-53.5,48.3-70.7,81.9-11.4-9.5-17.8-21.2-25.3-35.6-40.2-59.2-71.2-89.5-140.4-48.8,55.1-59.4-18.4-143.4-49.7-178.9l11.7-13.7c63.6-85.4,77.4-213.2-17.6-288,97.5,25,195,107.1,266.1,180.4"/>
      <path class="cls-8" d="M406.64,487.61c-15.4,33-39.9,79.7-49.9,114.8-10.5,2.1-31.7,4.3-40.4,7.2-27.8,24.7-53.5,48.3-70.7,81.9-11.4-9.5-17.8-21.2-25.3-35.6-40.2-59.2-71.2-89.5-140.4-48.8,55.1-59.4-18.4-143.4-49.7-178.9,49.5,18.9,88.4,85.5,84.3,137.5,177.5-170.3,107.8-168-14.7-344.2,8.6,60.5-11.6,150.6-58,193,63.6-85.4,71.5-217-17.6-288,95.1,40.5,169.2,122.2,240.3,195.5l142.1,165.6ZM132.64,575.01c93.6,20.5,109.8,138.1,114.3,95.8s86.9-82.8,86.9-82.8c0,0-8.1-112-41-122.9-32.8-10.7-172.8,112.7-172.8,112.7,0,0,9.9-3.4,12.6-2.8Z"/>
    </g>
    <g>
      <path class="cls-2" d="M612.84,499.71c15.4,33,27.9,65.9,38,100.9,10.5,2.1,22,5.8,30.7,8.7,27.8,24.7,53.5,48.3,70.7,81.9,11.4-9.5,17.8-21.2,25.3-35.6,40.2-59.2,71.2-89.5,140.4-48.8-55.1-59.4,18.4-143.4,49.7-178.9l-11.6-13.7c-56.6-69.2-78.2-213.2,17.6-288-100.8,19.9-224.15,126.95-295.15,200.35l-65.65,173.15Z"/>
      <path class="cls-8" d="M588.94,490.81c15.4,33,42.1,72.5,52.2,107.5,10.5,2.1,31.8,8.4,40.5,11.2,27.8,24.7,53.5,48.3,70.7,81.9,11.4-9.5,17.8-21.2,25.3-35.6,40.2-59.2,71.2-89.5,140.4-48.8-55.1-59.4,18.4-143.4,49.7-178.9-49.5,18.9-88.4,85.5-84.3,137.5-177.5-170.3-107.8-168,14.7-344.2-8.6,60.5,11.6,150.6,58,193-63.6-85.4-72.7-218.5,17.6-288-78.5,60.4-102.2,45.7-231.8,182.1l-153,182.3ZM865.34,575.01c-93.6,20.5-109.8,138.1-114.3,95.8s-86.8-82.8-86.8-82.8c0,0,8.1-112,41-122.9,32.9-10.8,172.8,112.6,172.8,112.6,0,0-10-3.3-12.7-2.7Z"/>
    </g>
  </g>
  <g id="Ebene_2" data-name="Ebene 2">
    <path class="cls-5" d="M128.14,901.81l125.3,27.5c40.4,8.9,79.2,19,114.6-2.5l1.8-11.7-1.8,10.3c15.6,32.8,80.1,28.3,123.1,28.7l24.7-.3c37.5-.5,109.6-8,123.6-42.8l-38.4-16.1,50.7,22.1c31.8,13.9,67.2,17.1,100.9,9.3l94.5-21.9-349.1-33.2-369.9,30.6Z"/>
    <path class="cls-3" d="M215.32,721.45c43.4-76.4,85.1-143.1,122.8-129.7,37.7,13.4,26.2,91.6,13.8,178-12.2,85.3-52,167.1-126,140.9-63.3-22.3-58.8-104.4-10.6-189.2Z"/>
    <path class="cls-3" d="M360.34,610.21c-54,18.7-103.7,32.9-125.5,2.9-21.8-30,10.9-68.7,46.7-111.7,35.3-42.3,88.5-66.4,131.2-7.4,36.5,50.4,7.6,95.4-52.4,116.2Z"/>
    <path class="cls-3" d="M776.04,721.11c-43.4-76.4-85-143.1-122.7-129.7s-26.2,91.6-13.8,178.1c12.2,85.3,52,167.1,126,140.9,63.2-22.4,58.8-104.5,10.5-189.3Z"/>
    <path class="cls-3" d="M290.69,801.31c4.79,59.7,10.92,106.3-32.64,116.7s-78.54-33.5-108.62-86.5c-35.65-62.9-37.99-111.9,46.34-131.4,86-19.8,88.79,24.4,94.92,101.2Z"/>
    <path class="cls-3" d="M692.76,810.61c-4.76,59.7-10.84,106.3,32.41,116.7s77.98-33.4,107.84-86.4c35.39-62.9,37.72-111.9-46.01-131.4-85.39-19.9-88.15,24.3-94.24,101.1Z"/>
    <path class="cls-3" d="M293.39,802.41c4.79,59.7,10.92,106.3-32.64,116.7s-78.54-33.5-108.62-86.5c-35.65-62.9-37.99-111.9,46.34-131.4,86-19.8,88.79,24.4,94.92,101.2Z"/>
    <path class="cls-3" d="M695.46,811.71c-4.76,59.7-10.84,106.3,32.41,116.7s77.98-33.4,107.84-86.4c35.39-62.9,37.72-111.9-46.01-131.4-85.39-19.9-88.15,24.3-94.24,101.1Z"/>
    <path class="cls-2" d="M276.04,795.31c4.2,57.6,9.7,102.7-29,112.7s-69.8-32.3-96.5-83.5c-31.7-60.7-33.8-108.1,41.2-126.9,76.4-19.2,78.8,23.5,84.3,97.7Z"/>
    <path class="cls-2" d="M706.34,804.31c-4.2,57.6-9.7,102.7,29,112.7s69.8-32.3,96.5-83.5c31.7-60.7,33.8-108.1-41.2-126.9-76.4-19.2-78.9,23.5-84.3,97.7Z"/>
    <path class="cls-3" d="M660.94,696.21c-35.3-120.6-74-227.5-165.4-227.5s-126.1,108.2-165.4,227.5c-38.6,117.7-15.2,243.7,163.9,243.7,153.2,0,206-109.8,166.9-243.7Z"/>
    <g>
      <path class="cls-8" d="M816.54,715.51l36.3-25-9.8,45s-5.2,4.1-18.3-3.9c-13-8-8.2-16.1-8.2-16.1Z"/>
      <path class="cls-3" d="M851.74,693.01l-9.7,40.3s-6.6,4.5-15.5-2.1c2.5-5,25.2-38.2,25.2-38.2Z"/>
      <path class="cls-8" d="M775.84,703.51l27.1-34.7,5.5,43.5s-4,7.3-18.9,3.6c-14.8-3.8-13.7-12.4-13.7-12.4Z"/>
      <path class="cls-3" d="M802.34,671.31l4.7,41.3s-6.9,5.2-14.7,1.5c.5-5.7,10-42.8,10-42.8Z"/>
      <path class="cls-8" d="M731.64,709.21l14.5-41.6,18.8,35.9s-1.8,12.5-17.1,13.8-16.2-8.1-16.2-8.1Z"/>
      <path class="cls-3" d="M746.44,669.81l17.4,34.4s-4,12.2-14.1,10.9c-.7-5.6-3.3-45.3-3.3-45.3Z"/>
    </g>
    <g>
      <path class="cls-8" d="M166.74,706.11l-36.3-25,9.8,45s5.2,4.1,18.3-3.9c13.1-8,8.2-16.1,8.2-16.1Z"/>
      <path class="cls-8" d="M207.54,694.01l-27.1-34.7-5.5,43.5s4,7.3,18.9,3.6c14.8-3.8,13.7-12.4,13.7-12.4Z"/>
      <path class="cls-3" d="M181.14,662.41l25.4,32.8s-3.2,8.1-11.9,8.9c-2.4-5-13.5-41.7-13.5-41.7Z"/>
      <path class="cls-8" d="M251.74,699.71l-14.5-41.6-18.8,35.9s1.8,12.5,17.1,13.8,16.2-8.1,16.2-8.1Z"/>
      <path class="cls-3" d="M237.04,661.61l13.3,38.2s-3,7.2-13.8,6.5c-.6-5.4.5-44.7.5-44.7Z"/>
      <path class="cls-3" d="M132.04,683.41l30.9,23.1s1.8,12.8-7.8,16c-3.1-4.7-23.1-39.1-23.1-39.1Z"/>
    </g>
    <path class="cls-3" d="M648.34,606.11c54,18.7,103.7,32.9,125.5,2.9s-10.9-68.7-46.7-111.7c-35.3-42.3-88.5-66.4-131.2-7.4-36.6,50.4-7.6,95.4,52.4,116.2Z"/>
    <path class="cls-2" d="M665.04,658.41c-35.3-120.6-74.1-227.4-165.4-227.4s-126.2,108.1-165.4,227.4c-38.7,117.7-15.3,243.7,163.8,243.7,153.2,0,206.1-109.8,167-243.7Z"/>
    <path class="cls-3" d="M365.68,497.92c28.5,41.34,59.89,78.09,133.96,78.09s102.16-37.06,133.96-78.09c31.39-40.42,12.39-83.61-132.58-83.61-124.19,0-167,37.67-135.34,83.61Z"/>
    <path class="cls-2" d="M531.34,530.21c42-31.8,47.8-28.4,150.6-87.6,0,0,52.2-48,66.6-52.2,4.6-1.3-9-2.4-22.8-6.6-19.8-6-8.3-38.3,14.4-34.2,13.2,2.4-.2-5.2-19.2-12.6-13.8-5.4,3.5-31.6,26.4-21,15.6,7.2-26.3-21.1-39-28.2-5.7-3.2-4.2-22.8,21.6-16.2,8.3,2.1-18-13.8-32.4-19.2-22.7-8.5,52.8-80.4,33-73.2-57,20.7-45-15-72.6-36.6-81.7-64-99.4-69.9-155.1-70.7h-5.8c-55.7.8-73.4,6.7-155.1,70.7-27.6,21.6-15.6,57.3-72.6,36.6-19.8-7.2,55.7,64.7,33,73.2-14.4,5.4-40.7,21.3-32.4,19.2,25.8-6.6,27.3,13,21.6,16.2-12.7,7.1-54.6,35.4-39,28.2,22.9-10.6,40.2,15.6,26.4,21-19,7.4-32.4,15-19.2,12.6,22.7-4.1,34.2,28.2,14.4,34.2-13.8,4.2-27.4,5.3-22.8,6.6,14.4,4.2,66.6,52.2,66.6,52.2,102.8,59.2,108.6,55.8,150.6,87.6,10.5,7.9,27,16.1,31.8,15.9,4.5-.1,31-15.9,31-15.9Z"/>
    <rect class="cls-8" x="483.64" y="73.66" width="27.08" height="65.25"/>
    <path class="cls-3" d="M280.34,293.61c2.8-1.7,11.2-6.6,11.2-6.6,7.7-9-3.4-22.9-23.9-15.5,19.9-16.4,38.7-17.4,38.2-27.8l-40.4-64.2c12.5,8.7,14,12.1,18,19.6,5.8,11,15.9,25.5,22.2,36.3,20.1,34.4,20.7,37.6,41.9,19,9-7.8,13.1-14.5,14.1-14.6,20.4,14.5,34.4,25.1,46.3,47.8-3.1.3-3.4-3.9-8.8-7.8-10.9-17.7-40.6-15.2-54.6-2.4-6.1,15.7-18.4,29.1-4.9,31.7-7.6,17-11.9,43.3-2.9,60.4-3.9-2.6-11.8-12.9-10-27.2-19.4,9.3-31.1,4.1-51.4,10.5-1.1.3-.8-2.5-11.3-3.9-2.4-.8-8.1,2-10.3.2,1.5-3.5,23.6-11.9,26.1-13.2,6.4-3.4,1.5-31.6-31.1-19.3.1,0,3.4-5.7,31.6-23Z"/>
    <path class="cls-3" d="M719.14,293.61c-2.8-1.7-11.2-6.6-11.2-6.6-7.7-9,3.4-22.9,23.9-15.5-20-16.4-38.7-17.4-38.2-27.8l40.4-64.2c-12.5,8.7-14,12.1-18,19.6-5.8,11-15.9,25.5-22.2,36.3-20.1,34.4-20.7,37.6-41.9,19-9-7.8-13.1-14.5-14.1-14.6-20.4,14.5-39.3,23-51.2,45.7,3.1.3,8.4-1.8,13.8-5.7,10.9-17.7,40.6-15.2,54.6-2.4,6.1,15.7,3.2,20.9,4.9,31.7,7.6,17,4.4,43.9-4.6,61,4-2.6,13.3-8.3,17.5-27.8,19.4,9.3,31.1,4.1,51.4,10.5,1.1.3.8-2.5,11.3-3.9,2.4-.8,8.1,2,10.3.2-1.5-3.5-23.6-11.9-26.1-13.2-6.4-3.4-1.5-31.6,31.1-19.3-.2,0-3.5-5.7-31.7-23Z"/>
    <path class="cls-4" d="M327.04,425.41c-1.5-1.2-4.3-1.5-9.7-8.1-13.3-20.8,82.9-39.8,96.5-29.3,32.9,24.6-50.1,40-86.8,37.4Z"/>
    <path class="cls-4" d="M670.14,422.91c1.4-1.3,4.1-1.6,9.3-8.2,12.7-21-80-38.3-93.2-27.6-31.5,25.2,48.5,39.1,83.9,35.8Z"/>
    <path class="cls-8" d="M433.14,386.91c1.9.1,23.6,18.5,23.9,20,.7,3.4-6.6,12.1-7.3,12.2-1.7.2-8.4-12.1-22.9-9.3-.6-6.3-4.9-23.4,6.3-22.9Z"/>
    <path class="cls-8" d="M564.64,385.81c-1.9.1-23.6,18.5-23.9,20-.7,3.4,6.6,12.1,7.3,12.2,1.7.2,8.4-12.1,22.9-9.3.6-6.3,4.9-23.5-6.3-22.9Z"/>
    <g>
      <path class="cls-8" d="M496.75,71.58l58.33-54.21-.4,73.2s-13.47,18.53-38.96,7.47c-25.48-10.7-18.97-26.46-18.97-26.46Z"/>
      <path class="cls-3" d="M552.56,90.01s-10.43,13.12-28.37,8.46l29.49-76.71-1.12,68.25Z"/>
    </g>
    <g>
      <path class="cls-8" d="M496.14,106.18l43.03-39.99-.3,54s-9.93,13.67-28.74,5.51c-18.8-7.89-13.99-19.52-13.99-19.52Z"/>
      <path class="cls-3" d="M538.51,67.75l-.63,52.37s-8.01,10.5-21.49,5.89c1.64-6.93,22.12-58.26,22.12-58.26Z"/>
    </g>
    <g>
      <path class="cls-8" d="M496.11,136.12l29-26.95-.2,36.39s-6.69,9.21-19.37,3.71c-12.67-5.32-9.43-13.15-9.43-13.15Z"/>
      <path class="cls-3" d="M524.66,110.22l-.42,35.3s-5.4,7.07-14.49,3.97c1.1-4.67,14.91-39.27,14.91-39.27Z"/>
    </g>
    <path class="cls-8" d="M576.14,121.11l33.3-28.9-1.6,40.5s-7.8,10-21.7,3.4c-13.9-6.4-10-15-10-15Z"/>
    <polyline class="cls-3" points="428.36 471.76 432.67 497.48 447.72 477.81"/>
    <polyline class="cls-6" points="430.14 472.51 434.34 495.91 449.04 478.01"/>
    <polyline class="cls-3" points="576.56 470.07 572.42 494.93 557.93 475.91"/>
    <polyline class="cls-6" points="577.84 469.11 573.64 492.51 558.94 474.61"/>
    <g>
      <path class="cls-8" d="M427.54,119.81l-33.3-28.9,1.6,40.5s7.8,10,21.7,3.4c13.9-6.4,10-15,10-15Z"/>
      <path class="cls-3" d="M395.54,93.31l31.9,27.9s-.9,9.9-10,10.9c-3.4-4.5-21.9-38.8-21.9-38.8Z"/>
    </g>
    <path class="cls-3" d="M608.34,94.31l-2.3,39.3s-10.1,7.5-16.3.9c1.4-5.2,18.6-40.2,18.6-40.2Z"/>
    <g>
      <path class="cls-8" d="M496.14,71.52l-57.89-54.68-.19,73.2s13.31,18.64,38.9,7.78c25.57-10.49,19.18-26.31,19.18-26.31Z"/>
      <path class="cls-3" d="M440.41,21.27l55.44,52.77s-2.38,17.8-18.87,18.91c-5.79-8.38-36.57-71.68-36.57-71.68Z"/>
    </g>
    <g>
      <path class="cls-8" d="M495.95,106.32l-42.07-39.74-.14,53.2s9.68,13.55,28.27,5.66c18.58-7.63,13.94-19.12,13.94-19.12Z"/>
      <path class="cls-3" d="M455.45,69.8l40.29,38.35s-1.73,12.93-13.72,13.74c-4.21-6.09-26.58-52.09-26.58-52.09Z"/>
    </g>
    <g>
      <path class="cls-8" d="M495.88,136.23l-30.26-28.58-.1,38.27s6.96,9.74,20.33,4.07c13.37-5.48,10.03-13.75,10.03-13.75Z"/>
      <path class="cls-3" d="M466.74,109.96l28.98,27.59s-1.24,9.3-9.87,9.88c-3.03-4.38-19.12-37.47-19.12-37.47Z"/>
    </g>
    <path class="cls-8" d="M554.74,182.61l24.4-28.9-1.2,40.5s-5.8,10-15.9,3.4c-10.1-6.4-7.3-15-7.3-15Z"/>
    <path class="cls-8" d="M445.94,181.31l-24.4-28.9,1.2,40.5s5.8,10,15.9,3.4c10.1-6.4,7.3-15,7.3-15Z"/>
    <path class="cls-3" d="M422.44,154.81l23.4,27.9s-.7,9.9-7.3,10.9c-2.5-4.5-16.1-38.8-16.1-38.8Z"/>
    <path class="cls-3" d="M578.44,155.81l-1.7,39.3s-7.4,7.5-11.9.9c1-5.2,13.6-40.2,13.6-40.2Z"/>
    <path class="cls-8" d="M535.24,236.81l15.9-16.1-.8,22.6s-3.7,5.6-10.4,1.9c-6.6-3.6-4.7-8.4-4.7-8.4Z"/>
    <path class="cls-8" d="M464.24,236.01l-15.9-16.1.8,22.6s3.7,5.6,10.4,1.9,4.7-8.4,4.7-8.4Z"/>
    <path class="cls-3" d="M448.94,221.21l15.3,15.6s-.4,5.5-4.8,6.1c-1.6-2.5-10.5-21.7-10.5-21.7Z"/>
    <path class="cls-3" d="M550.64,221.81l-1.1,22s-4.8,4.2-7.8.5c.7-3,8.9-22.5,8.9-22.5Z"/>
    <path class="cls-4" d="M501.64,608.01l-123.3,29.4s129.6,11.8,121.5,11.8-139.5,37-139.5,37l133.2,28.6-112.5,28.6,106.2,28.6-137.7,25.1,134.1,42,155.7-42-154.8-51.3,154.8-48.7-171.9-12.6,143.1-53-126-40.3,17.1,16.8Z"/>
    <path class="cls-4" d="M502.34,260.91l-58.4,16.7s61.4,6.7,57.6,6.7-66.1,20.9-66.1,20.9l63.1,16.2-53.3,16.2,50.3,16.2-65.2,14.2,63.6,23.8,73.8-23.8-73.4-29,73.4-27.6-81.5-7.1,67.8-30-59.7-22.8,8,9.4Z"/>
    <path class="cls-3" d="M301.04,670.81c52.3,24.3,100,44,115.9,21,15.9-23.1-19.5-61.7-58.4-104.5-38.4-42.2-90.7-71.1-121.8-25.8-26.7,38.6,6.2,82.3,64.3,109.3Z"/>
    <path class="cls-8" d="M628.14,163.71l57.1-69.8-2.8,98s-13.4,24.1-37.2,8.3-17.1-36.5-17.1-36.5Z"/>
    <path class="cls-8" d="M373.64,160.41l-57.1-69.8,2.8,98s13.4,24.1,37.2,8.3c23.8-15.7,17.1-36.5,17.1-36.5Z"/>
    <path class="cls-3" d="M318.74,96.41l54.7,67.5s-1.5,23.9-17.2,26.4c-5.7-10.9-37.5-93.9-37.5-93.9Z"/>
    <path class="cls-3" d="M683.44,98.71l-3.9,95.1s-17.3,18.2-27.9,2.1c2.3-12.5,31.8-97.2,31.8-97.2Z"/>
    <path class="cls-4" d="M753.74,884.11l49.3-13.4s-47.9-14.5-44.9-14.1c3.1.4,56.1-17.6,56.1-17.6l-47.8-25.9,45.1-13.4-37.6-24.5,54.3-9.8-46.9-35-62.7,20.1,53.9,42.2-62.9,24.7,63.8,17.2-58.9,28.1,44,33.4-4.8-12Z"/>
    <path class="cls-2" d="M301.54,660.11c50.9,23.2,97.2,42.2,111.6,22.6,14.4-19.6-20.8-54.6-59.5-93.5-38.1-38.3-89.2-65.4-117.4-27-24.2,32.7,8.8,72.1,65.3,97.9Z"/>
    <path class="cls-4" d="M297.14,597.81c26.5,7.8,50.4,13.9,55.2,4.5s-15.5-23.2-37.9-38.5c-22.1-15.1-49.1-24.6-58.5-6.2-8,15.8,11.7,31.6,41.2,40.2Z"/>
    <path class="cls-3" d="M707.64,664.91c-51.9,24.2-99.2,43.8-114.9,21s19.4-61.1,58.1-103.6c38.1-41.9,90-70.5,120.8-25.8,26.2,38.3-6.4,81.6-64,108.4Z"/>
    <path class="cls-2" d="M707.14,656.01c-50.9,23.2-97.2,42.2-111.6,22.6s20.8-54.6,59.5-93.5c38.1-38.3,89.2-65.4,117.4-27,24.2,32.8-8.8,72.1-65.3,97.9Z"/>
    <path class="cls-4" d="M689.14,563.11c-22.1,16.6-41.3,32.2-36.6,41.6,4.7,9.4,27.9,1.4,53.5-7.4,25.3-8.7,49.1-24.7,39.9-43.2-7.8-15.8-32.3-9.5-56.8,9Z"/>
    <path class="cls-4" d="M228.84,874.71l-48.8-13.4s47.5-14.4,44.4-14-55.6-17.7-55.6-17.7l47.3-25.9-44.7-13.4,37.2-24.5-53.9-9.9,46.4-34.9,62.1,20.2-53.3,42.1,62.4,24.8-63.3,17.2,58.4,28.2-43.5,33.4,4.9-12.2Z"/>
    <path class="cls-10" d="M423.94,465.51c10.2,13.2,81.6,38.4,159.6-.6"/>
  </g>
  <g id="eyes">
    <g>
      <path class="cls-5" d="M405.54,284.21c-15.2-10.9-39.4-19-48.4,0-4.3,9-3.3,22.1-5.8,20q-1.2-8.8-2.4-17.5c-2.8,6.9-11.1,59.2-14,65.9-19.1.1,8.8-57.3-17.9-81.8,41.8-6.5,74.7-14.2,88.5,13.4Z"/>
      <path class="cls-7" d="M355.04,307.51c-20.9-5.1-15.8,36-12.5,48.4,2,7.4,3.3,8.2,3.9,9.7,3.1,7.5,5.4,13.1,10.7,19.5-6.9-1.3-19.2-12.3-22.4-18.5-9-17.1-4.7-43.4,2.9-60.4,3-6.7,6.2-28.1,31-35,1.3,8.8-14.8,27.5-13.6,36.3Z"/>
      <path class="cls-1" d="M346.54,365.71c-.6-1.5-1.9-2.3-3.9-9.7-4.5-22.9,43.1-24,48.7-11.2,13.5,30.2-27.5,30.2-44.8,20.9Z"/>
      <path class="cls-8" d="M408.74,378.31c-.3.4-.7.7-1.1,1-16.2-1.9-31.4,1.8-46.8,6.8-.9,0-1.5-.6-3.4-1-5.3-6.4-7.7-12-10.7-19.5,17.3,9.3,58.2,9.2,44.8-21-5.7-12.8-53.2-11.7-48.7,11.2-3.3-12.4-12.1-56.7,8.8-51.7,8,4.1,1.6-11,5.8-20,8.9-18.9,24.6-18.1,39.8-7.2,5.4,3.9,3.8,2.8,8.8,7.8,3.9,7.4,6.2,12.4,8.8,20.5,2.3,7.3,5.9,21.9,6.7,30.4.1,1.2,0,2.3-.4,3.4l-10.7,36c-.4,1.3-.9,2.4-1.7,3.3Z"/>
      <path class="cls-9" d="M391.94,283.81c16.3-3.4,13.8,25.4-1.9,18.5-8.4-3.6-5.8-16.9,1.9-18.5Z"/>
    </g>
    <path class="cls-5" d="M588.24,283.31c15.2-10.9,39.4-19,48.4,0,4.3,9,3.3,22.1,5.8,20q1.2-8.8,2.4-17.5c2.8,6.9,11.1,59.2,14,65.9,19,.1-8.9-57.3,17.8-81.8-41.7-6.6-74.6-14.3-88.4,13.4Z"/>
    <g>
      <path class="cls-5" d="M588.74,282.91c15.2-10.9,39.4-19,48.4,0,4.3,9,3.3,22.1,5.8,20q1.2-8.8,2.4-17.5c2.8,6.9,11.1,59.2,14,65.9"/>
      <path class="cls-7" d="M639.24,306.11c20.9-5.1,15.8,36,12.5,48.4-2,7.4-3.3,8.2-3.9,9.7-3.1,7.5-5.4,13.1-10.7,19.5,6.9-1.3,19.2-12.3,22.4-18.5,9-17.1,4.7-43.4-2.9-60.4-3-6.7-6.2-28.1-31-35-1.3,8.8,14.8,27.5,13.6,36.3Z"/>
      <path class="cls-8" d="M651.54,354.51c3.3-12.4,12.1-56.7-8.8-51.7-8,4.1-1.6-11-5.8-20-8.9-18.9-24.6-18.1-39.8-7.2-5.4,3.9-3.8,2.8-8.8,7.8-3.9,7.4-6.2,12.4-8.8,20.5-2.3,7.3-5.9,21.9-6.7,30.4-.1,1.2,0,2.3.4,3.4l10.7,36c.3,1.2.9,2.3,1.7,3.2.3.4.7.7,1.1,1,16.2-1.9,31.4,1.8,46.8,6.8.9,0,1.5-.6,3.4-1,5.3-6.4,7.7-12,10.7-19.5"/>
      <path class="cls-1" d="M581.04,363.91c-.5-1.5-1.8-2.4-3.3-9.9-3.1-23.1,44.4-21.4,49.3-8.3,3.1,8.3-1,11-2.6,14.9-5.7,14-30.2,11.4-43.4,3.3Z"/>
      <path class="cls-9" d="M638.54,278.51c-16.3-3.4-13.8,25.4,1.9,18.5,8.4-3.6,5.8-16.9-1.9-18.5Z"/>
    </g>
  </g>
</svg>
