<?xml version="1.0" encoding="UTF-8" standalone="no"?>
<!DOCTYPE svg PUBLIC "-//W3C//DTD SVG 1.1//EN" "http://www.w3.org/Graphics/SVG/1.1/DTD/svg11.dtd">
<svg width="100%" height="100%" viewBox="0 0 75 70" version="1.1" xmlns="http://www.w3.org/2000/svg" xmlns:xlink="http://www.w3.org/1999/xlink" xml:space="preserve" xmlns:serif="http://www.serif.com/" style="fill-rule:evenodd;clip-rule:evenodd;stroke-linejoin:round;stroke-miterlimit:2;">
    <g id="Ebene_4">
        <path id="Rechteck_3" d="M12,0L62.8,0C69.4,0 74.8,5.4 74.8,12L74.8,57.2C74.8,63.8 69.4,69.2 62.8,69.2L12,69.2C5.4,69.2 0,63.8 0,57.2L0,12C0,5.4 5.4,0 12,0Z" style="fill:rgb(5,5,5);fill-rule:nonzero;"/>
    </g>
    <g id="Ebene_5" transform="matrix(1,0,0,1,7.688,10.391)">
        <g>
            <path d="M25.3,13.6C26,14.6 26.4,16.3 26.4,18C26.4,23.2 22.8,28.7 19.8,31.4C16.5,34.4 13.3,35.4 10.9,35.4C9.4,35.4 7.3,34.7 6.1,33.5C5,32.4 4.4,30.3 4.4,28.8C4.4,24.9 6.9,19.1 11.1,15.3C14.1,12.7 17.4,12.1 17.7,12.1C18,12.1 18.2,11.9 18.5,11.6C18.8,11.3 19.7,10.9 20,10.9C22.3,10.9 24.3,12.2 25.3,13.6ZM12.4,19.5C9.2,24.1 8.7,27.5 8.7,29.2C8.7,30.8 9.5,32.6 11.2,32.6C12.3,32.6 14.2,31.8 16,30.2C19.3,27.3 22.9,20.9 22.9,16.4C22.9,15.5 22.5,14.7 21.9,14.2C21.5,13.8 21.3,13.9 21.4,14.3C21.5,14.7 21.6,15.2 21.2,15.6C20.8,16.1 19.9,16.6 19.3,16.6C18.8,16.6 18.5,16.4 18.4,16C18.2,15.5 17.7,15.2 17.3,15.2C16.6,15.2 14.8,16.2 12.4,19.5Z" style="fill:white;fill-rule:nonzero;"/>
        </g>
        <g>
            <path d="M53,12.3C53.1,12.9 53.1,13.7 52.4,15C51.4,16.9 50.5,19.1 49.7,21.5C49.5,22 49.5,22.1 50,22.1C51.2,22.1 52.9,22.1 54,22C55.1,21.9 55.3,22.3 54.6,22.9C53.4,23.8 51.2,24.4 49.2,24.6C48.6,24.7 48.6,24.7 48.4,25C48.2,25.4 48,26.1 47.5,27.8C47.3,28.5 47.4,28.6 47.8,28.7C48.2,28.8 48.5,29.1 48.2,30C47.5,32.2 45.7,34.4 44.8,35C44.2,35.4 43.8,35.5 43.5,35.5C42.8,35.4 42.3,34.1 42.5,32.4C42.7,31.4 44.1,26.3 44.5,25.4C44.7,25 44.6,24.9 44.2,24.9C43.6,24.9 36.8,25.1 35,25.1C34.6,25.1 34.4,25.2 34.2,25.6C33.6,26.8 32.8,28.6 32.4,29.9C32.2,30.5 32.3,30.6 32.7,30.7C33.5,30.9 34,31.5 33.6,32.5C33.2,33.6 32.3,34.3 31.8,34.8C31.2,35.5 30.3,36 29.3,36C28,36 27.8,34.4 28.2,32.4C28.6,30.5 29.8,26.7 30.1,26C30.3,25.4 30.3,25.2 30,25.1C29.6,24.8 29.1,24.5 29.1,23.9C29.1,23.3 30.2,22.6 31.1,22.3C31.6,22.2 31.7,21.9 31.9,21.5C32.2,20.7 34.7,13.9 35.4,12.3C35.8,11.3 36.2,10.8 37,10.8C37.8,10.8 40.2,11.7 38.8,14.9C38.4,15.7 36.2,20.8 35.9,21.5C35.9,21.9 36,22 36.4,22C37.2,22 44.3,22.1 44.9,22.1C45.5,22.1 45.7,21.9 45.8,21.7C46.2,20.6 48.6,13.6 49.4,12.1C49.9,11.3 50.3,11 51.2,11C52.2,11 52.8,11.7 53,12.3Z" style="fill:white;fill-rule:nonzero;"/>
        </g>
        <g>
            <path d="M10.1,40.5C10.1,40.5 11.4,40.6 11.8,40.7C12.8,41 13.6,41.5 14.1,42.2C14.6,42.9 14.9,43.8 14.9,44.8C14.9,45.9 14.6,46.8 14.1,47.5C13.5,48.2 12.8,48.7 11.8,48.9C11.4,49 10.9,49 10.2,49L8.5,49L8.5,40.5L10.1,40.5ZM14.4,44.8C14.4,43.9 14.2,43.1 13.8,42.5C13.4,41.9 12.818,41.582 12.05,41.241C11.858,41.156 11.525,41.067 11.2,41.007C10.905,40.952 10.5,40.903 10,40.903L9,40.893L9,48.7L11,48.7C11.3,48.7 11.5,48.7 11.8,48.6C12.6,48.4 13.2,48 13.7,47.4C14.1,46.6 14.4,45.8 14.4,44.8Z" style="fill:white;fill-rule:nonzero;"/>
            <path d="M17,40.6L21.8,40.6L21.8,41.1L17.5,41.1L17.5,44.5L21.4,44.5L21.4,45L17.5,45L17.5,48.6L22,48.6L22,49.1L17,49.1L17,40.6Z" style="fill:white;fill-rule:nonzero;"/>
            <path d="M23.7,48.8L23.7,48.2C23.9,48.3 24.2,48.4 24.7,48.6C25.2,48.7 25.6,48.8 25.9,48.8C26.7,48.8 27.3,48.7 27.7,48.4C28.1,48.1 28.3,47.6 28.3,47C28.3,46.7 28.2,46.4 28.1,46.1C28,45.9 27.8,45.7 27.5,45.6C27.3,45.5 26.8,45.3 26.2,45.1C25.6,45 25.2,44.8 24.9,44.7C24.6,44.6 24.3,44.3 24.1,44.1C23.9,43.9 23.8,43.4 23.8,42.9C23.8,42.2 24.1,41.6 24.6,41.2C25.1,40.8 25.8,40.6 26.6,40.6C27.1,40.6 27.7,40.7 28.2,40.8C28.436,40.871 28.627,40.935 28.8,41L28.796,41.468C28.552,41.349 28.34,41.31 28.098,41.248C27.862,41.188 27.731,41.179 27.4,41.1C27.092,41.027 26.9,41 26.5,41C25.8,41 25.2,41.2 24.9,41.5C24.5,41.8 24.4,42.3 24.4,42.9C24.4,43.3 24.5,43.5 24.6,43.7C24.8,43.9 25,44.1 25.2,44.2C25.5,44.3 25.9,44.4 26.4,44.6C27,44.8 27.4,44.9 27.8,45C28.2,45.1 28.4,45.4 28.7,45.7C28.9,46 29.1,46.4 29.1,46.9C29.1,47.7 28.8,48.3 28.3,48.7C27.8,49.1 27,49.3 26.1,49.3C25.7,49.3 25.3,49.2 24.9,49.1C24.5,49 23.8,48.9 23.7,48.8Z" style="fill:white;fill-rule:nonzero;"/>
        </g>
        <g>
            <rect x="31.2" y="41.4" width="0.5" height="7.8" style="fill:white;fill-rule:nonzero;"/>
        </g>
        <g>
            <path d="M33.8,45C33.8,44.1 34,43.2 34.4,42.5C34.8,41.8 35.3,41.3 36,40.9C36.7,40.5 37.5,40.3 38.4,40.3C38.8,40.3 39.9,40.359 40.1,40.459L40.1,41.1C39.9,41 38.6,41 38.3,41C37.6,41 37,41.1 36.4,41.4C35.8,41.7 35.3,42.1 35,42.7C34.6,43.3 34.5,44 34.5,44.9C34.5,46.1 34.8,47.1 35.5,47.7C36.2,48.4 37.1,48.7 38.4,48.7C38.9,48.7 39.4,48.6 40,48.4L40,45.3L38,45.3L38,44.8L40.5,44.8L40.5,48.7C40.4,48.8 40.1,48.9 39.6,49C39.1,49.1 38.7,49.1 38.2,49.1C36.8,49.1 35.7,48.7 35,48C34.2,47.4 33.8,46.3 33.8,45Z" style="fill:white;fill-rule:nonzero;"/>
            <path d="M43.2,40.7L47,45.9L48.6,48.2C48.5,47.7 48.5,46.8 48.5,45.6L48.5,40.6L49.1,40.6L49.1,49.1L48.6,49.1L44.8,43.7L43.24,41.519C43.268,42.017 43.3,43 43.3,44.5L43.3,49.2L42.7,49.2L42.7,40.7L43.2,40.7Z" style="fill:white;fill-rule:nonzero;"/>
        </g>
    </g>
</svg>
