<?xml version="1.0" encoding="utf-8"?>
<!-- Generator: Adobe Illustrator 26.2.1, SVG Export Plug-In . SVG Version: 6.00 Build 0)  -->
<svg version="1.1" id="Logo_weiß_" xmlns="http://www.w3.org/2000/svg" xmlns:xlink="http://www.w3.org/1999/xlink" x="0px"
	 y="0px" viewBox="0 0 74.8 69.2" style="enable-background:new 0 0 74.8 69.2;" xml:space="preserve">
<style type="text/css">
	.st0{fill:#FFFFFF;}
	.st1{enable-background:new    ;}
	.st2{fill:#1D1D1B;}
	.st3{fill:#7C7C7B;}
</style>
<g id="Ebene_4" transform="translate(0 0)">
	<path id="Rechteck_3" class="st0" d="M12,0h50.8c6.6,0,12,5.4,12,12v45.2c0,6.6-5.4,12-12,12H12c-6.6,0-12-5.4-12-12V12
		C0,5.4,5.4,0,12,0z"/>
</g>
<g id="Ebene_5" transform="translate(7.688 10.391)">
	<g class="st1">
		<path class="st2" d="M25.3,13.6c0.7,1,1.1,2.7,1.1,4.4c0,5.2-3.6,10.7-6.6,13.4c-3.3,3-6.5,4-8.9,4c-1.5,0-3.6-0.7-4.8-1.9
			c-1.1-1.1-1.7-3.2-1.7-4.7c0-3.9,2.5-9.7,6.7-13.5c3-2.6,6.3-3.2,6.6-3.2c0.3,0,0.5-0.2,0.8-0.5c0.3-0.3,1.2-0.7,1.5-0.7
			C22.3,10.9,24.3,12.2,25.3,13.6z M12.4,19.5c-3.2,4.6-3.7,8-3.7,9.7c0,1.6,0.8,3.4,2.5,3.4c1.1,0,3-0.8,4.8-2.4
			c3.3-2.9,6.9-9.3,6.9-13.8c0-0.9-0.4-1.7-1-2.2c-0.4-0.4-0.6-0.3-0.5,0.1c0.1,0.4,0.2,0.9-0.2,1.3c-0.4,0.5-1.3,1-1.9,1
			c-0.5,0-0.8-0.2-0.9-0.6c-0.2-0.5-0.7-0.8-1.1-0.8C16.6,15.2,14.8,16.2,12.4,19.5z"/>
	</g>
	<g class="st1">
		<path class="st2" d="M53,12.3c0.1,0.6,0.1,1.4-0.6,2.7c-1,1.9-1.9,4.1-2.7,6.5c-0.2,0.5-0.2,0.6,0.3,0.6c1.2,0,2.9,0,4-0.1
			c1.1-0.1,1.3,0.3,0.6,0.9c-1.2,0.9-3.4,1.5-5.4,1.7c-0.6,0.1-0.6,0.1-0.8,0.4c-0.2,0.4-0.4,1.1-0.9,2.8c-0.2,0.7-0.1,0.8,0.3,0.9
			c0.4,0.1,0.7,0.4,0.4,1.3c-0.7,2.2-2.5,4.4-3.4,5c-0.6,0.4-1,0.5-1.3,0.5c-0.7-0.1-1.2-1.4-1-3.1c0.2-1,1.6-6.1,2-7
			c0.2-0.4,0.1-0.5-0.3-0.5c-0.6,0-7.4,0.2-9.2,0.2c-0.4,0-0.6,0.1-0.8,0.5c-0.6,1.2-1.4,3-1.8,4.3c-0.2,0.6-0.1,0.7,0.3,0.8
			c0.8,0.2,1.3,0.8,0.9,1.8c-0.4,1.1-1.3,1.8-1.8,2.3c-0.6,0.7-1.5,1.2-2.5,1.2c-1.3,0-1.5-1.6-1.1-3.6c0.4-1.9,1.6-5.7,1.9-6.4
			c0.2-0.6,0.2-0.8-0.1-0.9c-0.4-0.3-0.9-0.6-0.9-1.2c0-0.6,1.1-1.3,2-1.6c0.5-0.1,0.6-0.4,0.8-0.8c0.3-0.8,2.8-7.6,3.5-9.2
			c0.4-1,0.8-1.5,1.6-1.5c0.8,0,3.2,0.9,1.8,4.1c-0.4,0.8-2.6,5.9-2.9,6.6C35.9,21.9,36,22,36.4,22c0.8,0,7.9,0.1,8.5,0.1
			c0.6,0,0.8-0.2,0.9-0.4c0.4-1.1,2.8-8.1,3.6-9.6c0.5-0.8,0.9-1.1,1.8-1.1C52.2,11,52.8,11.7,53,12.3z"/>
	</g>
	<g class="st1">
		<path class="st3" d="M10.1,40.6c0.7,0,1.3,0,1.7,0.1c1,0.3,1.8,0.8,2.3,1.5c0.5,0.7,0.8,1.6,0.8,2.6c0,1.1-0.3,2-0.8,2.7
			c-0.6,0.7-1.3,1.2-2.3,1.4c-0.4,0.1-0.9,0.1-1.6,0.1H8.5v-8.5H10.1z M14.4,44.8c0-0.9-0.2-1.7-0.6-2.3c-0.4-0.6-1-1-1.8-1.2
			c-0.2-0.1-0.5-0.1-0.8-0.1c-0.3,0-0.7,0-1.2,0H9v7.5h0.9c0.5,0,0.8,0,1.1,0c0.3,0,0.5,0,0.8-0.1c0.8-0.2,1.4-0.6,1.9-1.2
			C14.1,46.6,14.4,45.8,14.4,44.8z"/>
		<path class="st3" d="M17,40.6h4.8v0.5h-4.3v3.4h3.9V45h-3.9v3.6H22v0.5H17V40.6z"/>
		<path class="st3" d="M23.7,48.8v-0.6c0.2,0.1,0.5,0.2,1,0.4c0.5,0.1,0.9,0.2,1.2,0.2c0.8,0,1.4-0.1,1.8-0.4
			c0.4-0.3,0.6-0.8,0.6-1.4c0-0.3-0.1-0.6-0.2-0.9c-0.1-0.2-0.3-0.4-0.6-0.5c-0.2-0.1-0.7-0.3-1.3-0.5c-0.6-0.1-1-0.3-1.3-0.4
			s-0.6-0.4-0.8-0.6s-0.3-0.7-0.3-1.2c0-0.7,0.3-1.3,0.8-1.7c0.5-0.4,1.2-0.6,2-0.6c0.5,0,1.1,0.1,1.6,0.2c0.2,0.1,0.4,0.2,0.6,0.2
			v0.6c-0.3-0.1-0.5-0.2-0.7-0.3c-0.2-0.1-0.4-0.1-0.7-0.2c-0.3-0.1-0.5-0.1-0.9-0.1c-0.7,0-1.3,0.2-1.6,0.5
			c-0.4,0.3-0.5,0.8-0.5,1.4c0,0.4,0.1,0.6,0.2,0.8c0.2,0.2,0.4,0.4,0.6,0.5c0.3,0.1,0.7,0.2,1.2,0.4c0.6,0.2,1,0.3,1.4,0.4
			s0.6,0.4,0.9,0.7c0.2,0.3,0.4,0.7,0.4,1.2c0,0.8-0.3,1.4-0.8,1.8c-0.5,0.4-1.3,0.6-2.2,0.6c-0.4,0-0.8-0.1-1.2-0.2
			S23.8,48.9,23.7,48.8z"/>
	</g>
	<g class="st1">
		<path class="st3" d="M31.2,41.4h0.5v7.8h-0.5V41.4z"/>
	</g>
	<g class="st1">
		<path class="st3" d="M33.8,45c0-0.9,0.2-1.8,0.6-2.5c0.4-0.7,0.9-1.2,1.6-1.6c0.7-0.4,1.5-0.6,2.4-0.6c0.4,0,0.7,0,1,0.1
			c0.3,0.1,0.5,0.1,0.7,0.2v0.5c-0.2-0.1-0.5-0.2-0.8-0.2C39,41,38.6,41,38.3,41c-0.7,0-1.3,0.1-1.9,0.4c-0.6,0.3-1.1,0.7-1.4,1.3
			c-0.4,0.6-0.5,1.3-0.5,2.2c0,1.2,0.3,2.2,1,2.8c0.7,0.7,1.6,1,2.9,1c0.5,0,1-0.1,1.6-0.3v-3.1h-2v-0.5h2.5v3.9
			c-0.1,0.1-0.4,0.2-0.9,0.3c-0.5,0.1-0.9,0.1-1.4,0.1c-1.4,0-2.5-0.4-3.2-1.1C34.2,47.4,33.8,46.3,33.8,45z"/>
		<path class="st3" d="M43.2,40.6l3.8,5.3l1.6,2.3h0c-0.1-0.5-0.1-1.4-0.1-2.6v-5h0.6v8.5h-0.5l-3.8-5.4l-1.6-2.2h0
			c0.1,0.5,0.1,1.5,0.1,3v4.7h-0.6v-8.5H43.2z"/>
	</g>
</g>
</svg>
