<?xml version="1.0" encoding="UTF-8"?>
<svg id="Ebene_1" xmlns="http://www.w3.org/2000/svg" version="1.1" xmlns:xlink="http://www.w3.org/1999/xlink" viewBox="0 0 837.2 1062">
  <!-- Generator: Adobe Illustrator 29.1.0, SVG Export Plug-In . SVG Version: 2.1.0 Build 142)  -->
  <defs>
    <style>
      .st0 {
        fill: #405c73;
      }

      .st0, .st1, .st2 {
        fill-rule: evenodd;
      }

      .st3, .st1 {
        fill: #fff;
      }

      .st4 {
        fill: none;
      }

      .st5, .st2 {
        fill: #c9aa35;
      }

      .st6 {
        fill: #01223d;
      }

      .st7 {
        clip-path: url(#clippath);
      }
    </style>
    <clipPath id="clippath">
      <rect class="st4" y="0" width="837.2" height="1062"/>
    </clipPath>
  </defs>
  <g class="st7">
    <path class="st3" d="M418.8,8.4C182.6,8.4,6.6,178,6.6,178v469.3c0,221.5,163.8,406.4,412.2,406.4h-.5c248.4,0,412.2-184.9,412.2-406.4V178S654.6,8.4,418.3,8.4"/>
    <path class="st6" d="M418.3,8.4c236.3,0,412.2,169.6,412.2,169.6v469.3c0,221.5-163.8,406.4-412.2,406.4h.5c-248.4,0-412.2-184.9-412.2-406.4V178S182.6,8.4,418.8,8.4"/>
    <path class="st0" d="M822.6,185.5c-17.3,76.5-73.7,50.3-71.3,141.5l1.7,310.9c0,66.3-50.5,327.6-335.1,329.1h0c-.4,0-.8,0-1.2,0-.4,0-.8,0-1.2,0h0c-284.6-1.5-335.1-262.8-335.1-329.1l1.7-310.9c2.4-91.6-51.1-64.7-68.1-142.5v460.6c0,216.6,159.7,397.6,402,398.9h2.4s2.4,0,2.4,0c242.4-1.3,402-182.3,402-398.9V184.5l-.2,1Z"/>
    <polygon class="st2" points="252.3 222.1 239.9 222.1 235.6 205 235.3 205 231 222.1 218.4 222.1 208.6 186.4 219.9 186.4 225 206.2 225.2 206.2 230.3 186.4 241.5 186.4 246.5 206.2 246.7 206.2 251.8 186.4 262 186.4 252.3 222.1"/>
    <polygon class="st2" points="415.8 222.1 406.4 222.1 396.9 208.3 395.8 206.2 395.5 206.3 395.5 222.1 385.5 222.1 385.5 186.4 394.7 186.4 403.8 199.7 405.4 202.7 405.7 202.6 405.7 186.4 415.8 186.4 415.8 222.1"/>
    <polygon class="st2" points="452.6 222.1 441.7 222.1 441.7 208.2 433.2 208.2 433.2 222.1 422.2 222.1 422.2 186.4 433.2 186.4 433.2 199.6 441.6 199.6 441.6 186.4 452.6 186.4 452.6 222.1"/>
    <polygon class="st2" points="628.5 222.1 619.2 222.1 609.6 208.3 608.5 206.2 608.3 206.3 608.3 222.1 598.2 222.1 598.2 186.4 607.4 186.4 616.6 199.7 618.2 202.7 618.4 202.6 618.4 186.4 628.5 186.4 628.5 222.1"/>
    <path class="st2" d="M525.7,210.7c0,7.2-5.6,11.8-14.1,11.8h-2.2c-8.5,0-14.1-4.6-14.1-11.8v-24.3h11v24.2c0,2.3,1.9,3.9,4.2,3.9s4.2-1.6,4.2-3.9v-24.2h10.9v24.3Z"/>
    <polygon class="st2" points="316.9 195 307.9 195 307.9 222 297 222 297 195 288 195 288 186.4 316.9 186.4 316.9 195"/>
    <polygon class="st2" points="379.3 194.6 364.2 194.6 364.2 199.8 378.7 199.8 378.7 207.8 364.2 207.8 364.2 213.5 379.3 213.5 380.3 222 353.5 222 353.5 186.4 380.3 186.4 379.3 194.6"/>
    <polygon class="st2" points="592 194.6 577 194.6 577 199.8 591.4 199.8 591.4 207.8 577 207.8 577 213.5 592 213.5 593.1 222 566.2 222 566.2 186.4 593.1 186.4 592 194.6"/>
    <polygon class="st2" points="284.6 194.1 280.4 194.1 280.4 214.4 284.6 214.4 284.6 222 265.1 222 265.1 214.4 269.3 214.4 269.3 194.1 265.1 194.1 265.1 186.4 284.6 186.4 284.6 194.1"/>
    <polygon class="st2" points="348.5 189.6 334.8 213.7 348.9 213.7 348.9 222 319.2 222 319.2 218.9 333.1 194.7 320.4 194.7 320.4 186.4 348.5 186.4 348.5 189.6"/>
    <path class="st2" d="M560.6,196.8v.6h-10v-.2c0-1.8-1.2-3.4-4.3-3.4s-4.3.9-4.3,2.2c0,5.4,19.3,1,19.3,14.2s-6.4,12.4-15.9,12.4-15.3-3.5-15.3-11.4,0-.7,0-1.2h10.1c0,.3,0,.4,0,.6,0,1.9,1.1,3.7,4.8,3.7s4.9-1.1,4.9-2.2c0-5-19.1-.8-19.1-14.8s6.8-11.3,15.2-11.3,14.5,3.4,14.5,10.9"/>
    <path class="st2" d="M481.6,186.4h-13.6l-11.9,35.6h10.5l2.1-6.3h11.4l2.1,6.3h11.4l-11.9-35.6ZM471.2,208.2l3.1-10.8h.3l3,10.8h-6.4Z"/>
    <rect class="st5" x="484.6" y="156.5" width="10" height="9.5"/>
    <rect class="st5" x="531" y="156.5" width="10" height="9.5"/>
    <polygon class="st2" points="519.2 166 506.1 166 495.5 130.3 506.8 130.3 513.1 152.4 513.3 152.4 519.5 130.3 530 130.3 519.2 166"/>
    <path class="st2" d="M325.7,158h7.6v7.9h-25.7v-7.9h7.9v-16.6h-7.9v-6c4.6-.3,10.8-3,14.6-5.6h3.5v28.2Z"/>
    <path class="st2" d="M424.3,158h7.6v7.9h-25.7v-7.9h7.9v-16.6h-7.9v-6c4.6-.3,10.8-3,14.6-5.6h3.5v28.2Z"/>
    <path class="st2" d="M478.7,150.8c0-6.9-4.7-11.9-12.9-11.9h-1.3c-8.3,0-14.2,4.7-14.2,13v1.6c0,8.3,6.3,13,14.6,13h.8c8.2,0,13-4.6,13-10.5h-9.5c0,2.5-1.3,4.2-4.1,4.2s-3.7-2.8-3.7-6.1h17.3v-3.2ZM461.4,149.5c0-2.9,1.4-4.4,3.6-4.4s3.6,1.4,3.6,4.4h-7.2Z"/>
    <path class="st2" d="M388.9,143.3c-1.9,0-4.7.8-6.5,2.7v-4.5c0-2.2,1.9-3.9,4.2-3.9s3.9,1.5,3.9,4.2h9.3c0-7.9-5.8-11.9-12.6-11.9h-1.5c-7.5,0-13.5,5.5-13.5,13v10.7c0,7.5,6,13,13.5,13h1.5c7.5,0,13.4-4.9,13.4-12.5s-5.2-10.8-11.7-10.8M386.4,159.2c-2.8,0-4.1-1.8-4.1-5s1.3-4.9,4.1-4.9,4.1,1.7,4.1,4.9-1.2,5-4.1,5"/>
    <path class="st2" d="M361.6,147.9v-.2c2.2-1.8,4.1-3.4,4.1-7.5,0-6.8-5.8-10.4-12.9-10.4s-12.8,3.6-12.8,10.4,1.8,5.7,4.1,7.5v.2c-3.2,1.9-5.3,3.9-5.3,8.2,0,6.8,5.8,10.3,14,10.3s14.1-3.6,14.1-10.3-2.1-6.3-5.3-8.2M352.8,159.6c-2.4,0-3.7-1.6-3.7-4.5s1.2-4.5,3.6-4.5,3.7,1.6,3.7,4.4-1.1,4.6-3.6,4.6M352.8,145c-2.2,0-3.7-1.5-3.7-4.3s1.4-4.2,3.6-4.2,3.7,1.5,3.7,4.2-1.4,4.3-3.6,4.3"/>
    <path class="st5" d="M87.1,146.2c3.3,4.6,4.9,6.9,8.2,11.5-5.9,4.2-8.8,6.4-14.7,10.9,9.1,11.8,18.1,23.6,27.2,35.4-6.4,4.9-9.5,7.4-15.8,12.6-9.5-11.4-19-22.9-28.5-34.3-5.7,4.7-8.5,7.1-14,12.1-3.8-4.2-5.6-6.3-9.4-10.6,15.1-13.2,30.7-25.9,47-37.6"/>
    <path class="st5" d="M111.9,129.4c7.2,11.2,14.3,22.4,21.5,33.5,2,3.2,6.4,3.5,10.2,1.2,3.7-2.3,5.4-6.4,3.4-9.6-6.8-11.4-13.6-22.8-20.5-34.2,7.6-4.6,11.5-6.8,19.2-11,6.4,11.7,12.8,23.4,19.2,35.2,6.1,12.2-2.4,23.6-12.7,30-1.4.9-2.1,1.3-3.5,2.2-9.8,7-24.7,8.6-32.7-1.8-7.6-11-15.3-21.9-22.9-32.9,7.4-5.2,11.1-7.7,18.7-12.5"/>
    <path class="st5" d="M216.3,92.9c2.5,6.5-.5,14.4-5.6,18.8,0,.2,0,.2.2.4,7.8-1.1,13,3.3,14.8,8,1.3,3.3,3.6,8.7,8.4,8,.5,1.3.8,2,1.3,3.3-2.7,2.4-6.4,4.3-9.8,5.7-7.9,3.2-13.3,2.6-16.6-4.9-1.4-3.1-4.6-9.5-12.2-6.1-2.1.9-3.1,1.4-5.1,2.4,3.6,7.5,5.3,11.2,8.9,18.7-7,3.3-10.4,5-17.3,8.6-9-17.4-18.1-34.7-27.1-52.1,12-6.2,24.2-12.1,36.6-17.4,9.3-4,20.4-1.6,23.6,6.6M181.1,106.3c2,4.1,3,6.2,4.9,10.4,3.8-1.8,5.8-2.7,9.6-4.5,2.7-1.2,3.3-4.9,1.8-8.2-1-2.2-3.8-3.5-6.4-2.3-4,1.8-6,2.7-10,4.6"/>
    <path class="st5" d="M262.3,84c1.8,1.6,2.6,2.4,4.4,4,.2-.2.2-.2.4-.4-3-10.2-4.5-15.3-7.5-25.6,7.7-2.3,11.6-3.3,19.3-5.3,4.9,19,9.7,37.9,14.6,56.9-6.5,1.6-9.7,2.5-16.1,4.4-7.6-5.7-15.4-11.2-23.3-16.5-1.2-1.1-1.8-1.7-3.1-2.8-.2.1-.2.2-.4.3,3.3,9.9,4.9,14.8,8.2,24.7-6.8,2.3-10.2,3.5-16.9,6-6.8-18.4-13.6-36.7-20.5-55.1,6.9-2.5,10.3-3.8,17.2-6.1,8,4.9,15.9,10,23.6,15.4"/>
    <path class="st5" d="M353.8,64.1c-7.6.9-11.4,1.5-19,2.7-.9-5.5-5-8-11.8-6.8-6,1.1-9.2,5.5-8.2,10.2,1.3,6.5,1.9,9.7,3.2,16.2.9,4.7,5.3,7.7,10.9,6.7,6.3-1.1,9.4-3.8,8.6-9.2,0-.4,0-.6-.2-1-4.4.7-6.6,1.1-11,1.9-.8-4.6-1.2-6.9-2.1-11.5,9.9-1.8,20-3.3,30.1-4.5,1,8.2,1.5,12.2,2.5,20.4.6,5.3,1.2,7.9,2.1,12.2-4.1.5-6.1.8-10.2,1.3-1.4-2.3-2.1-3.5-3.5-5.8-3.3,4.6-10.1,8.7-16.8,10-.4,0-.5,0-.9.2-14,3.3-28-6.2-31.8-19.5-.8-3.5-1.3-5.3-2.1-8.8-3.3-16.6,10.9-29.1,26.2-31.7,1.1-.2,1.7-.3,2.8-.5,13.3-2,28.4,2.9,31,17.7"/>
    <path class="st5" d="M414.3,38.9c-.8,5.4-1.1,8.1-1.8,13.6-9.6.1-19.3.5-28.9,1.2.2,3.4.3,5.1.6,8.5,10.9-.7,16.4-1,27.4-1.2,0,5.2.1,7.9.2,13.1-10.7.2-16,.4-26.7,1.1.3,3.8.4,5.7.6,9.5,10.9-.7,16.4-1,27.3-1.1.8,5.6,1.3,8.4,2.1,14-15.8.1-31.6,1.2-47.3,2.7-2-19.5-4.1-38.9-6.1-58.4,17.6-1.7,35-2.7,52.7-3.1"/>
    <path class="st5" d="M466.1,72c.2,0,.2,0,.4,0,4.1-10.2,8.2-20.3,12.5-30.3,11.8,1.2,23.5,2.7,35.2,4.6-3.2,19.3-6.3,38.6-9.5,58-7.6-1.2-11.5-1.8-19.2-2.8,1.6-12.5,3.1-24.9,4.7-37.4-.2,0-.2,0-.4,0-5.5,11.9-10.7,24-15.6,36.1-8.8-.9-13.3-1.3-22.1-1.8-2.9-12.8-6.1-25.5-9.5-38.2-.2,0-.3,0-.5,0-.5,12.5-.9,25.1-1.4,37.6-7-.3-10.5-.3-17.6-.4,0-19.6.1-39.2.2-58.7,11.8,0,23.5.4,35.2,1.2,2.6,10.6,5.1,21.3,7.5,32"/>
    <path class="st5" d="M577.7,60.4c-2.3,5-3.4,7.5-5.6,12.5-9.3-2.6-18.8-5-28.2-7.1-.7,3.3-1.1,5-1.9,8.4,10.7,2.4,16.1,3.7,26.7,6.7-1.4,5.1-2.1,7.6-3.5,12.6-10.4-2.9-15.6-4.2-26.1-6.5-.8,3.7-1.2,5.6-2.1,9.3,10.7,2.4,16,3.7,26.6,6.7-.8,5.6-1.2,8.4-2,14-15.3-4.4-30.8-7.9-46.4-10.8,3.6-19.3,7.1-38.5,10.7-57.8,17.4,3.4,34.5,7.4,51.6,12"/>
    <path class="st5" d="M616.7,86.4c-3.1-1.1-4.6-1.7-7.7-2.8l-11.2,31.6c2.9,1,4.4,1.6,7.3,2.6-1.8,4.8-2.6,7.1-4.4,11.9-11-3.9-21.9-7.5-33-11,1.4-4.9,2.2-7.3,3.6-12.2,3,.9,4.4,1.3,7.4,2.2,3.3-10.7,6.6-21.3,10-32-3.1-1-4.7-1.5-7.8-2.4,1.4-4.8,2.1-7.2,3.6-12.1,12.4,3.7,24.6,7.7,36.7,12.2-1.8,4.7-2.6,7.1-4.4,11.8"/>
    <path class="st5" d="M654.9,112.4c.3,2.4.4,3.5.7,5.9.2,0,.3,0,.6,0,4.6-9.6,6.9-14.4,11.4-24.1,7.3,3.5,11,5.3,18.2,9-9,17.4-18,34.8-27,52.2-6-3.1-9.1-4.6-15.2-7.6-1.9-9.3-4.1-18.7-6.6-27.9-.2-1.6-.3-2.5-.5-4.1-.2,0-.3,0-.5,0-4.1,9.6-6.2,14.3-10.3,23.9-6.6-2.9-10-4.2-16.7-6.9,7.1-18.2,14.3-36.5,21.4-54.7,6.8,2.7,10.2,4.1,17,6.9,2.8,9,5.3,18.1,7.5,27.3"/>
    <path class="st5" d="M736.7,164.2c-1.7,2.4-2.5,3.6-4.2,6-8.4,12.8-27,11.9-38.7,5.2-8.3-5.2-16.7-10.1-25.3-14.8,9.4-17.2,18.8-34.4,28.2-51.6,9.5,5.3,18.9,10.8,28.2,16.5,11.6,7.7,21.9,25.5,11.9,38.7M692.9,158.9c2.6,1.5,3.9,2.3,6.4,3.9,4.7,2.9,10.3,2.1,12.9-2,3.2-4.9,4.8-7.4,7.9-12.3,2.6-4,.8-9.7-4.1-12.7-2.7-1.7-4.1-2.5-6.8-4.1-5.4,9.1-10.9,18.2-16.3,27.3"/>
    <path class="st5" d="M802.8,183.8c-4.2,3.5-6.4,5.2-10.6,8.7-7.6-6.8-15.5-13.4-23.5-19.7-2.1,2.7-3.2,4-5.3,6.7,7.6,6,15.1,12.2,22.3,18.6-3.5,3.9-5.2,5.9-8.6,9.8-7.1-6.2-14.4-12.3-21.8-18.1-2.4,3-3.5,4.5-5.9,7.5,7.6,6,15,12.2,22.2,18.6-3.1,4.7-4.7,7.1-7.8,11.8-12.4-11.1-25.5-21.5-39-31.4,11.5-15.8,23.1-31.7,34.6-47.5,15,11.1,29.3,22.8,43.4,35"/>
    <path class="st1" d="M168,592.8v38h-42.3v-38h-34.7c.1,21.4.2,39.4.2,51.2,0,38.5,24.6,169.9,130.2,251.4v-235l-18-23.9-.3-.4-8.5-11.3-1.9-2.5v-29.4h-24.6Z"/>
    <path class="st1" d="M706.9,592.8v38h-40.8v-38h-23.7v29.1l-1.3,2.2-21.1,36.2v231.1c98.7-82.2,122.7-210.7,122.7-245.9v-52.6h-35.8Z"/>
    <polygon class="st5" points="329.9 831.7 353.1 831.7 384.5 907.8 414.5 831.7 427.1 831.7 457.4 906 490 831.7 511.8 831.7 466.9 946.3 451.1 946.3 421.2 871.6 392.5 946.3 376.6 946.3 329.9 831.7"/>
    <path class="st1" d="M420.8,702.1c-138.1,42.9-136.8,203.5-136.8,215.6s0,11.4,0,16.5c3,1.3,7.9,4.3,11,5.6l.4-6.4c0-12.3-2.5-178.3,126.2-219,135.6,47.5,126.2,206.3,126.2,219v3.8c2.8-1.2,8-4.4,10.6-5.7,0-4.1,0-7.8,0-12.4,0-12.1,4.9-173.2-137.5-216.9"/>
    <path class="st1" d="M594.8,543.7v38.2h-38.2v-38.2h-41v38.2h-38.2v-38.2h-41v38.2h-38.2v-38.2h-41v38.2h-38.2v-38.2h-41v38.2h-38.2v-38.2h-38.2v75.5l8.5,11.3.3.4,19.9,26.5v245.2c13.4,10.5,28.1,20,44.3,28.2-.2-5.7-.3-12.4-.3-20,0-144.3,85.1-197.6,146-218,70.8,25.6,146,73.7,146,218s0,11.9-.2,17.4c16-8.5,30.6-18.3,43.9-29.1v-241.2l22.4-38.4v-75.7h-38.2Z"/>
    <path class="st1" d="M495.2,777.7h0c-.1-.2-.2-.3-.3-.4,0,0,0-.1-.1-.2h0c-4.1-5.2-8.5-10.2-13.3-15v9.3h-20v-12.1h17.2c-4.4-4.1-12-10.2-17.2-14.1h0c0,0-.2-.1-.2-.2,0,0,0,0,0,0h0c-4.2-3-8.7-5.8-13.4-8.5v6.4h-20v-13.5h6c-1-.5-4.8-2.1-6-2.6h0s0,0,0,0c0,0,0,0,0,0h0c-2-.8-4.1-1.6-6.1-2.4-2.4.8-4.8,1.7-7.2,2.6h0s0,0-.1,0c0,0-.1,0-.2,0h0c-1.3.5-4.7,2-5.6,2.3h5.6v13.5h-20.1v-6.1c-4.4,2.6-8.7,5.4-12.9,8.4h0s-3.7,2.8-3.7,2.8c-4.5,3.5-8.8,7.3-12.9,11.4h15.7v12.1h-20.1v-7.6c-4.9,5.3-9.5,11-13.7,17.1l-2.8,4.1c-.6.9-1.2,1.9-1.8,2.8h5.2l6.3,15.2,6.3-15.2h21l6.6,15.2,6.6-15.2h20.6l6.6,15.2,6.6-15.2h20.3l6.8,15.2,6.8-15.2h20.4l6.5,15.2,6.5-15.2h7.7c-1.4-2-5.5-7.7-7.4-10.2M413.9,771.5h-20.1v-12.1h20.1v12.1ZM447.7,771.5h-20v-12.1h20v12.1Z"/>
    <path class="st1" d="M378.5,383v52.4h-26.8v-52.4s0-9,13.4-9,13.4,9,13.4,9M431.8,383v52.4h-26.8v-52.4s0-9,13.4-9,13.4,9,13.4,9M487,383v52.4h-26.8v-52.4s0-9,13.4-9,13.4,9,13.4,9M502.5,267.3v23.6h-23.6v-23.6h-25.2v23.6h-23.6v-23.6h-25.2v23.6h-23.6v-23.6h-25.2v23.6h-23.6v-23.6h-23.2v47l15.8,13.3v206.6h3.7v38.2h19.2v-38.2h59.9v38.2h19.2v-38.2h59.9v38.2h19.2v-38.2h3.6v-206.6l15.8-13.3v-47h-23.1Z"/>
    <path class="st1" d="M221.8,462.4v56.1h-31v-56.1s0-9.6,15.5-9.6,15.5,9.6,15.5,9.6M130.9,428.9l-.5.3h.1c0,.1,0,.2,0,.2h.2l20.9,17.3h0v174.2h6.6v-38h34.5v-48.7h57.1v38.2h8v-125.5l19.1-17.4h0s.1,0,.1,0l-72.2-91.9-73.7,91.3Z"/>
    <path class="st1" d="M644.3,462.4v56.1h-31v-56.1s0-9.6,15.5-9.6,15.5,9.6,15.5,9.6M554.3,429.8h.2l21.1,17.4v125.2h9.8v-38.2h57.1v48.9h33.4v38h7.8v-174l20.7-17.3h.1l-74.9-92.2-75.4,92.2Z"/>
  </g>
</svg>